<svg xmlns="http://www.w3.org/2000/svg" viewBox="0 0 166.65 204.98"><defs><style>.cls-1{fill:#090a0a;}.cls-2{fill:#262424;}.cls-3,.cls-4,.cls-5{fill:none;}.cls-3{stroke:#262424;stroke-miterlimit:22.93;stroke-width:0.5px;}.cls-5{fill-rule:evenodd;}</style></defs><title>logo</title><g id="Camada_2" data-name="Camada 2"><g id="brasão"><g id="Camada_7_cópia" data-name="Camada 7 cópia"><path class="cls-1" d="M166.51,148.65c-.26-.18-.54.08-1,.49a8,8,0,0,1-3,1.58c-.23.08-.44.15-.62.23-1.65.64-2.9,1.93-5.4,4.49-.47.49-1,1-1.47,1.43-.67.64-1.36,1.29-2,2a9,9,0,0,1-.7.72c0-.12.07-.29.15-.52a5.69,5.69,0,0,1,.37-1,5.59,5.59,0,0,0,.26-.67,6.83,6.83,0,0,0,.25-1.08,1.58,1.58,0,0,1,.37-1,1.85,1.85,0,0,1,.42-.34,7.89,7.89,0,0,1,2.67-1.27c2.59-.74,4.81-3.87,4.83-3.9a14.46,14.46,0,0,0,2-4.87c.29-1,.44-1.81.74-3.4.26-1.4.4-2.39.51-3.19a9.43,9.43,0,0,1,.73-3l0-.09c.4-.88.55-1.28.27-1.46s-.46.06-.82.4l-.7.59c-.28.23-.56.46-.83.72a8.79,8.79,0,0,1-1.52,1.15c-.46.3-1,.63-1.65,1.15-1.78,1.33-2.68,2-3.3,3-.12.19-.26.42-.43.72-.32.54-.76,1.28-1.45,2.38a4.31,4.31,0,0,1-.66.89,2.5,2.5,0,0,1-.06-.38,3,3,0,0,1,0-.93c0-.16.05-.33.06-.54a3.65,3.65,0,0,0,0-1,1.64,1.64,0,0,1,0-.7,3,3,0,0,1,.42-.94,2.75,2.75,0,0,1,1.55-1,8.3,8.3,0,0,0,1-.39,6.8,6.8,0,0,0,2.35-2.06c1.61-2,1.62-4.57,1.63-6.26,0-.41,0-.8,0-1.22a27.48,27.48,0,0,1,0-3.36c0-.48.05-.72.09-1.08.09-.74.25-1.6.41-2.52.22-1.19.44-2.42.51-3.37,0-.25,0-.68-.25-.78s-.61.32-.89.79l0,.06a10.49,10.49,0,0,1-1.12,1.41c-.23.26-.47.52-.68.8-1.06,1.33-1.53,1.84-1.81,2.15a6,6,0,0,0-.66.84,16.76,16.76,0,0,0-2.35,4.65,4,4,0,0,1-.84,1.56l-.08.08a2.23,2.23,0,0,1,0-.23c0-.2.07-.45.11-.74s.07-.69.09-.91a3.39,3.39,0,0,1,.1-.77,6.75,6.75,0,0,1,.38-1.11,6.23,6.23,0,0,1,1.2-1.75l.17-.2a11.81,11.81,0,0,0,2-2.78,8.09,8.09,0,0,0,.63-3.76,14.67,14.67,0,0,0-.61-3.31c-.45-1.87-.73-3-.9-3.68a10.19,10.19,0,0,1-.3-1.37,17,17,0,0,1-.07-4.81c.13-.57.15-1-.12-1.08s-.56.15-.82.46a4.4,4.4,0,0,0-.82,1.47,4.51,4.51,0,0,1-.64,1.28,10.17,10.17,0,0,0-.6,1,18.55,18.55,0,0,0-2,7.31,4.84,4.84,0,0,1-.87,2.66l-.16.13a.89.89,0,0,1,0-.22,1,1,0,0,0,0-.21,6.77,6.77,0,0,1-.12-2.58c.09-.81.19-1.32.28-1.78,0-.2.08-.39.11-.58a10.39,10.39,0,0,0-.56-4.66,22.56,22.56,0,0,0-2.18-5.19,37.69,37.69,0,0,0-2.36-3.76,17.34,17.34,0,0,0-2.4-2.86,11,11,0,0,1-1.75-2.11c-.09-.15-2.36-3.57-4-4.38-.33-.16-.67-.28-.87-.06s0,.58.19.9a42.2,42.2,0,0,1,1.89,6c.48,1.71,1,3.47,1.45,5,2.28,7.39,3.09,9.79,5,11a11.3,11.3,0,0,1,3.18,3.07l.14.28c.09.19.21.47.45.92l.09.18a1.74,1.74,0,0,1,.1.19l-.17-.12a2.57,2.57,0,0,1-.87-1.31c-.49-1.53-2.68-2.56-4.79-3.57a4.61,4.61,0,0,0-.69-.25c-.47-.14-1.45-.45-3.92-1.28l-.14,0c-1.51-.51-1.91-.64-2.16-.32s.13.91,1,1.93a31.17,31.17,0,0,1,2.49,3.26,22.22,22.22,0,0,1,1.65,3,13.06,13.06,0,0,0,2.23,3.56,18.38,18.38,0,0,0,2.45,2.31l.73.55-.26-.17a15,15,0,0,0-5.7-1.81c-.15,0-.57-.08-.78.2-.34.44.16,1.09,1,2.17a24.86,24.86,0,0,1,1.57,2.21,8.84,8.84,0,0,1,1,2.34,13.26,13.26,0,0,0,1.13,2.75c1.26,2.36,1.95,3.66,3.46,4.63.72.46,3.61,2.11,4.73,2.16.34,0,.39.11.39.11s0,.07,0,.2a3,3,0,0,0-.16,1.26,15.28,15.28,0,0,1-.16,2.37v0c-.08-.2-.16-.44-.21-.57l-.05-.15c-.13-.36-.37-1-2.88-3.35-1.83-1.68-3.14-2.9-4.59-3.44l-.21-.05-1.95-.46c-.5-.11-.9-.2-1.11.07s0,.7.36,1.25l.1.16s.25.42,1.05,2a5.83,5.83,0,0,1,.57,2.46q0,.21,0,.39a16.39,16.39,0,0,0,2.41,6.7c1.27,2,3.59,4.6,4.53,5a.86.86,0,0,1,.52.43.7.7,0,0,1,0,.41,39,39,0,0,1-1,5c0-.16,0-.37,0-.57a13.63,13.63,0,0,0-.63-3.77c-.41-1.25-1.63-2.91-4.08-6.22-.1-.14-2.5-3.37-4.26-3.56a.51.51,0,0,0-.53.17c-.19.27.08.66.17.79.54.77.59,3.35.54,4.63a17.24,17.24,0,0,1-.22,3.52,11.3,11.3,0,0,0-.12,3c.11,1.27.62,5.56,2.53,7.44a9.52,9.52,0,0,1,1.86,2.53,1.87,1.87,0,0,1,.3.71c.12.74-.36,1.39-1,2.28a5.07,5.07,0,0,1-1.21,1.2,3.19,3.19,0,0,0-.67.58.37.37,0,0,1-.22.15h0a1.19,1.19,0,0,1,.08-.16l.07-.15a12.39,12.39,0,0,0,.18-4.12,14.31,14.31,0,0,0-1.87-5.63,22.78,22.78,0,0,0-1.36-2,8,8,0,0,1-1-1.51,1.88,1.88,0,0,0-.61-.9c-.14-.13-.41-.38-.65-.23s-.11.52-.05.7c.41,1.19-.8,4.74-1.3,6a29,29,0,0,0-1.67,6.31,21,21,0,0,0-.32,6.32,9.62,9.62,0,0,1,.14,1.06c.05.39.09.79.17,1.18l0,.09c.06.29.08.39,0,.53s-.29.37-.82.6c-.24.11-.52.24-.84.41a9.2,9.2,0,0,0-1.94,1.35l-.07.06a5.72,5.72,0,0,1-1.28.95l-.11.06c.11-.21.28-.48.45-.75A19.61,19.61,0,0,0,132.6,178a15.78,15.78,0,0,0-.06-7.7,16.3,16.3,0,0,0-1.22-2.91c-.32-.68-.48-1-.79-1h0c-.41,0-.48.5-.58,1.22a8.87,8.87,0,0,1-1,3.19,12.47,12.47,0,0,1-1.9,2.4l-1.39,1.54c-1.48,1.67-2.22,2.51-2.68,3.12-2.09,2.78-3.35,4.46-3.64,6.82,0,.22,0,.44-.06.65a2.59,2.59,0,0,1-.61,1.87,1.53,1.53,0,0,1-.9.34,6.38,6.38,0,0,0-1.31.32c-1.13.41-2.06.83-2.75,1.14l-.07,0,.4-.39.93-1a29.18,29.18,0,0,0,3.12-3.71,18.08,18.08,0,0,0,1.73-3.81,25.77,25.77,0,0,0,1.19-4.35c.26-1.51.41-2.34-.07-2.58s-.72.18-1.27.79a13,13,0,0,1-2.42,2.23,7.06,7.06,0,0,1-1.27.68c-.47.21-1.17.52-2.43,1.17s-2.27,1.21-3.08,1.67a43.87,43.87,0,0,0-5.22,3.2c-2.32,1.85-4,3.18-4.19,5.24,0,.31,0,.62,0,.92,0,.61,0,1.14-.26,1.31-.13.07-.33.05-1.12-.09,0,0,0,.07,0,.11s-.06.25-.08.38c.91.16,1.16.2,1.45,0,.54-.32.52-1,.51-1.75a8.19,8.19,0,0,1,0-.86c.18-1.85,1.78-3.13,4-4.9a42.34,42.34,0,0,1,5.19-3.18c.76-.43,1.72-1,3-1.64s1.94-.95,2.4-1.15a7.41,7.41,0,0,0,1.35-.73,13.42,13.42,0,0,0,2.51-2.3,5.57,5.57,0,0,1,.67-.69,6,6,0,0,1-.2,2.05,23.56,23.56,0,0,1-1.16,4.27,17.29,17.29,0,0,1-1.68,3.7,28.89,28.89,0,0,1-3.07,3.65l-.92,1c-.34.34-.59.58-.78.75-.37.35-.52.49-.39.71s.4.16,1.41-.3c.68-.31,1.6-.73,2.71-1.13a5.73,5.73,0,0,1,1.22-.3,1.94,1.94,0,0,0,1.16-.46,3.1,3.1,0,0,0,.77-2.2c0-.21,0-.41.06-.63.27-2.23,1.43-3.78,3.54-6.58.45-.6,1.19-1.43,2.68-3.11.55-.62,1-1.11,1.36-1.51a13.27,13.27,0,0,0,2-2.49,9.23,9.23,0,0,0,1-3.37,6.62,6.62,0,0,1,.13-.71,6.15,6.15,0,0,1,.32.62,13.54,13.54,0,0,1,1.25,10.25,19,19,0,0,1-2.24,4.7c-.59.95-.83,1.35-.51,1.59s.41,0,.84-.2a6,6,0,0,0,1.38-1l.07-.06a8.5,8.5,0,0,1,1.84-1.27c.31-.17.58-.29.8-.39.55-.25.95-.43,1.1-.91a1.39,1.39,0,0,0,0-.78l0-.09a11,11,0,0,1-.16-1.13c0-.36-.08-.74-.15-1.11a21.2,21.2,0,0,1,.32-6.14,29.55,29.55,0,0,1,1.64-6.21c.08-.18,1.7-4.35,1.37-6.13a1.35,1.35,0,0,1,.31.54,7.9,7.9,0,0,0,1,1.63c.42.58.9,1.25,1.33,2a13.82,13.82,0,0,1,1.81,5.43,11.32,11.32,0,0,1-.2,4c-.08.16-.25.44-.09.69a.54.54,0,0,0,.52.22.82.82,0,0,0,.58-.33,3.85,3.85,0,0,1,.58-.5,5.38,5.38,0,0,0,1.33-1.31c.7-1,1.25-1.7,1.1-2.65a2.39,2.39,0,0,0-.35-.88,10.39,10.39,0,0,0-2-2.64c-1.79-1.76-2.28-5.9-2.39-7.13a10.8,10.8,0,0,1,.13-2.91,18.71,18.71,0,0,0,.22-3.59c0-.39.12-3.83-.63-4.92a1.08,1.08,0,0,1-.11-.18h0c1.29.15,3.26,2.48,3.92,3.36,2.41,3.27,3.62,4.91,4,6.08a13.69,13.69,0,0,1,.61,3.65c0,.76.06,1.17.44,1.21.63,0,.8-.92,1.56-5.59a1.12,1.12,0,0,0-.07-.69,1.34,1.34,0,0,0-.81-.7c-.76-.31-3-2.68-4.27-4.77a15.89,15.89,0,0,1-2.35-6.48c0-.12,0-.25,0-.38a6.34,6.34,0,0,0-.62-2.66c-.82-1.58-1.07-2-1.08-2l-.1-.17a3.76,3.76,0,0,1-.36-.66h0a4.32,4.32,0,0,1,.57.1l2,.45.15,0c1.35.51,2.64,1.69,4.42,3.33,2.42,2.24,2.64,2.86,2.75,3.15l.05.16c.29.84.46,1.24.79,1.18s.33-.37.39-.75a16.21,16.21,0,0,0,.16-2.44,2.56,2.56,0,0,1,.13-1.07.73.73,0,0,0,0-.62.91.91,0,0,0-.83-.38c-.92,0-3.6-1.52-4.47-2.08-1.4-.9-2-2.08-3.28-4.44a13.42,13.42,0,0,1-1.11-2.66,8.82,8.82,0,0,0-1.1-2.47,26.17,26.17,0,0,0-1.59-2.24c-.47-.62-1-1.38-1-1.56,0,0,.06-.05.33,0a14.36,14.36,0,0,1,5.49,1.74c1.44.92,3.62,2.32,4.67,4.18.41.73.85,1.39,1.36,1.27a.7.7,0,0,0,.46-.5,3.19,3.19,0,0,0-.54-3.18,2,2,0,0,0-1.24-.61,7.71,7.71,0,0,1-1.18-.32,11.88,11.88,0,0,1-3.43-2,17.84,17.84,0,0,1-2.37-2.24,12.51,12.51,0,0,1-2.16-3.44,21.49,21.49,0,0,0-1.68-3.11,32.75,32.75,0,0,0-2.53-3.32,6.66,6.66,0,0,1-1-1.27h0a10.07,10.07,0,0,1,1.59.46l.14,0c2.48.84,3.46,1.14,3.93,1.29a2.64,2.64,0,0,1,.62.23c2,.95,4.11,1.94,4.54,3.28a3.13,3.13,0,0,0,1,1.54c.33.25.78.5,1,.26s.07-.44-.2-1l-.1-.18c-.23-.45-.35-.71-.44-.9a2.86,2.86,0,0,0-.16-.31,11.3,11.3,0,0,0-3.34-3.25c-1.72-1.09-2.56-3.6-4.76-10.7-.47-1.54-1-3.3-1.43-5a39.33,39.33,0,0,0-2-6.17c-.05-.07-.08-.13-.11-.18l.16.07c1.54.75,3.8,4.17,3.83,4.2a11,11,0,0,0,1.81,2.2,17.31,17.31,0,0,1,2.34,2.79,33.38,33.38,0,0,1,2.32,3.71,21.62,21.62,0,0,1,2.15,5.09,10.08,10.08,0,0,1,.55,4.44c0,.18-.07.36-.11.56-.09.45-.2,1-.29,1.83a7.07,7.07,0,0,0,.14,2.75s0,.09,0,.14c0,.23.06.56.34.67s.6-.18.7-.27a5.21,5.21,0,0,0,1-3,17.83,17.83,0,0,1,2-7.09,8.43,8.43,0,0,1,.57-1,4.7,4.7,0,0,0,.71-1.42A3.84,3.84,0,0,1,156,105l.13-.15a2.73,2.73,0,0,1-.07.36,17.32,17.32,0,0,0,.08,5,7.48,7.48,0,0,0,.31,1.44c.17.69.45,1.81.9,3.68a14.1,14.1,0,0,1,.59,3.2,7.54,7.54,0,0,1-.58,3.54,11.87,11.87,0,0,1-1.89,2.67l-.17.19A7,7,0,0,0,154,126.8a7.89,7.89,0,0,0-.41,1.2,4.39,4.39,0,0,0-.11.85c0,.21,0,.46-.09.88s-.07.52-.11.72c-.09.56-.14.84.13,1s.58-.18.78-.4a4.51,4.51,0,0,0,1-1.78,16.12,16.12,0,0,1,2.28-4.48,5.06,5.06,0,0,1,.62-.79c.28-.31.75-.83,1.82-2.17.21-.27.44-.52.67-.78a11.2,11.2,0,0,0,1.16-1.47l0-.07.22-.34v0a31.58,31.58,0,0,1-.5,3.31c-.16.88-.32,1.79-.41,2.55-.05.36-.07.61-.1,1.1a28.47,28.47,0,0,0,0,3.42c0,.42,0,.8,0,1.2,0,1.61,0,4.05-1.53,6a6.21,6.21,0,0,1-2.17,1.91,6.91,6.91,0,0,1-.93.37,2.9,2.9,0,0,0-2.28,2.28,2,2,0,0,0,0,.88,2.92,2.92,0,0,1,0,.83,3.43,3.43,0,0,1-.06.5,3.53,3.53,0,0,0,0,1.06c0,.37.07.75.38.85s.79-.41,1.25-1.14c.7-1.1,1.14-1.85,1.46-2.4.17-.29.3-.52.42-.7a12.33,12.33,0,0,1,3.18-2.87c.66-.5,1.17-.83,1.62-1.12a9.75,9.75,0,0,0,1.6-1.21c.25-.25.53-.47.8-.7s.43-.35.67-.57c0,.13-.12.28-.2.45l0,.1a10,10,0,0,0-.77,3.13c-.11.8-.25,1.78-.51,3.19s-.44,2.33-.72,3.33a14,14,0,0,1-1.89,4.72s-2.13,3-4.56,3.71a8.16,8.16,0,0,0-2.81,1.34,2.25,2.25,0,0,0-.51.42,2.08,2.08,0,0,0-.5,1.24,5.85,5.85,0,0,1-.22,1,4.21,4.21,0,0,1-.25.61,7.46,7.46,0,0,0-.39,1c-.3.94-.25,1.16-.06,1.28s.68-.13,1.51-1c.61-.68,1.3-1.33,2-1.95.5-.47,1-1,1.49-1.45,2.45-2.51,3.67-3.77,5.22-4.38l.6-.22a8.22,8.22,0,0,0,3.2-1.73l0,0-.14.3a14.65,14.65,0,0,0-1,3c-.23.93-.49,2-.95,3.38a30.18,30.18,0,0,1-2.12,5.15,15.56,15.56,0,0,1-2.72,3.94,11.87,11.87,0,0,1-4.47,2.92,9,9,0,0,1-4,.67,4.32,4.32,0,0,0-1.08-.06,3.51,3.51,0,0,0-1.79.47,5.22,5.22,0,0,0-1,1.43c-.3.49-.47.8-.6,1a4.73,4.73,0,0,1-.55.86l-.11.13c-.23.28-.39.47-.23.67s.49.06,1.29-.47l.11-.07a11.43,11.43,0,0,1,2.54-1.19c.53-.19,1.18-.44,2-.78,1.45-.58,2-.83,2.27-1a4.28,4.28,0,0,1,.83-.33,42.57,42.57,0,0,1,4.88-1.14l.08,0a7.13,7.13,0,0,0,2.72-.94c.55-.37.88-.62,1.05-.74a.21.21,0,0,0,0,.06l0,0a24.31,24.31,0,0,0-1.3,2.25,8.76,8.76,0,0,1-.61,1.06A6.7,6.7,0,0,1,159,172c-.36.25-.76.53-1.24.9a11.63,11.63,0,0,0-2.61,2.66,10.26,10.26,0,0,1-2.06,2.17,19,19,0,0,1-6.88,3.41,13.82,13.82,0,0,1-4.74.78,18.46,18.46,0,0,1-3.5-.35,4.67,4.67,0,0,0-1-.13,4,4,0,0,0-1.41.28,3.9,3.9,0,0,0-1.31.76,2.87,2.87,0,0,1-1,.56,5.4,5.4,0,0,0-1.08.54c-.3.2-.61.41-.49.68s.44.17.85.05a28.69,28.69,0,0,1,5.58-.42c3-.08,4.51-.19,5.63-.27a20.35,20.35,0,0,1,3.52,0c1.31.1,3.67.33,4.41.41l-.61.22-.08,0a12.77,12.77,0,0,0-3.63,2.25l-.6.48a28.31,28.31,0,0,1-7.76,3.81,28.18,28.18,0,0,1-7.3,1.7,12.58,12.58,0,0,1-5.15-.23c-.34-.11-.62-.21-.9-.32a10.86,10.86,0,0,0-1.9-.57,10.43,10.43,0,0,0-1.26-.19c-.43,0-1-.11-2-.26l-1-.17c-.35-.06-.53-.09-.94-.13a12.85,12.85,0,0,0-2.79.06c-.91.11-1.34.2-1.35.53s.44.47.81.53a2.42,2.42,0,0,0,1,0c1.27-.33,7.71,1.55,10.08,2.31,1.76.56,3.26,1,4.47,1.31a16.29,16.29,0,0,1,3.09,1,2.6,2.6,0,0,1-.85.32,6.86,6.86,0,0,1-3.23.1,4.08,4.08,0,0,0-2.58.39,31.93,31.93,0,0,1-4.72,1.38,15.75,15.75,0,0,1-5.6.53,15,15,0,0,1-2.33-.49l-.53-.14a39.33,39.33,0,0,1-8.81-3.13,12.62,12.62,0,0,1-2.33-1.47l-.29-.26a5.38,5.38,0,0,0-1.21-.92,5.88,5.88,0,0,0-1.6-.56l-.17,0c0,.12,0,.24,0,.36s0,.11.07.16a5.28,5.28,0,0,1,1.44.51,4.81,4.81,0,0,1,1.11.84l.3.28A13.27,13.27,0,0,0,105,195.7a39.59,39.59,0,0,0,8.93,3.17l.54.14a15.43,15.43,0,0,0,2.39.51,9.77,9.77,0,0,0,1.26.08,21.19,21.19,0,0,0,4.51-.62,33.9,33.9,0,0,0,4.79-1.4,3.61,3.61,0,0,1,2.34-.36,7.32,7.32,0,0,0,3.43-.12c.64-.18,1.15-.32,1.2-.72.06-.59-.89-.86-3.45-1.57-1.2-.33-2.7-.75-4.45-1.31-.89-.28-8.71-2.75-10.36-2.31a1.78,1.78,0,0,1-.75,0h0l.51-.07a12.51,12.51,0,0,1,2.68-.06,7.74,7.74,0,0,1,.91.12c.23,0,.54.1,1,.17,1,.15,1.56.22,2,.27a11.25,11.25,0,0,1,1.22.18,9.36,9.36,0,0,1,1.82.55c.29.11.58.22.94.33a13.18,13.18,0,0,0,5.34.25,28.68,28.68,0,0,0,7.42-1.73,28.71,28.71,0,0,0,7.89-3.88l.62-.49a12.31,12.31,0,0,1,3.48-2.17l.08,0c1.05-.37,1.41-.56,1.35-.87s-.38-.3-.66-.3c0,0-3.06-.31-4.63-.42a20.05,20.05,0,0,0-3.58,0c-1.13.08-2.66.2-5.66.27a42.75,42.75,0,0,0-5.11.33,4,4,0,0,1,.47-.21,3.05,3.05,0,0,0,1.13-.65,3.75,3.75,0,0,1,1.17-.67,3.51,3.51,0,0,1,1.24-.25h0a3,3,0,0,1,.87.12,18.71,18.71,0,0,0,3.6.36,14.35,14.35,0,0,0,4.9-.8,19.6,19.6,0,0,0,7.06-3.5,11,11,0,0,0,2.14-2.26,11.05,11.05,0,0,1,2.52-2.57c.47-.36.86-.64,1.21-.88a7.15,7.15,0,0,0,2.08-1.93,11.07,11.07,0,0,0,.65-1.12,20.65,20.65,0,0,1,1.27-2.21l0-.06c.6-.93.72-1.18.49-1.37s-.37,0-.7.27l-.36.29s-.33.27-1.14.82a6.78,6.78,0,0,1-2.54.86l-.08,0a43.94,43.94,0,0,0-4.93,1.15,5.15,5.15,0,0,0-.9.36c-.3.14-.8.38-2.23.95l-2,.79a11.67,11.67,0,0,0-2.64,1.23l-.1.06a5.29,5.29,0,0,0,.31-.53c.13-.24.29-.54.59-1a5.32,5.32,0,0,1,.88-1.27,3,3,0,0,1,1.54-.39,4.53,4.53,0,0,1,1,.05,9.16,9.16,0,0,0,4.24-.69,12.32,12.32,0,0,0,4.65-3,15.57,15.57,0,0,0,2.81-4.07,29.49,29.49,0,0,0,2.15-5.23c.47-1.41.74-2.52,1-3.41a14.78,14.78,0,0,1,1-3C166.64,149.19,166.76,148.82,166.51,148.65Zm-16.84-21.6a9.83,9.83,0,0,0,1.24.34,1.62,1.62,0,0,1,1,.46,2.72,2.72,0,0,1,.43,2.66,1.23,1.23,0,0,1-.1.2s-.26-.06-.84-1.09a11.1,11.1,0,0,0-3.33-3.32A9.63,9.63,0,0,0,149.67,127.05Z"/><path class="cls-1" d="M39.2,172.1l1.36,1.52c1.43,1.61,2.22,2.5,2.67,3.11,2.11,2.8,3.28,4.35,3.55,6.58l.06.63a3,3,0,0,0,.77,2.19,1.89,1.89,0,0,0,1.16.47,5.81,5.81,0,0,1,1.21.3c1.11.4,2,.82,2.71,1.13,1,.46,1.25.57,1.42.3s0-.37-.4-.72c-.19-.17-.44-.41-.77-.74s-.46-.48-.89-.94l-.18.17.13-.23a27.83,27.83,0,0,1-3-3.63,17.06,17.06,0,0,1-1.68-3.7,24.08,24.08,0,0,1-1.17-4.27l-.16-.94a2.72,2.72,0,0,1-.54-.27c0,.36.12.79.21,1.3a24.8,24.8,0,0,0,1.19,4.37,17.73,17.73,0,0,0,1.73,3.78,28.13,28.13,0,0,0,3.1,3.7l.06.06c.43.46.64.7.89.95l.4.39-.08,0c-.68-.31-1.62-.74-2.75-1.15a7,7,0,0,0-1.3-.32,1.46,1.46,0,0,1-.9-.33,2.64,2.64,0,0,1-.62-1.87c0-.21,0-.43-.06-.65-.28-2.37-1.55-4-3.64-6.82-.46-.62-1.21-1.47-2.7-3.14-.55-.62-1-1.12-1.36-1.52a12.47,12.47,0,0,1-1.9-2.4,6.88,6.88,0,0,1-.74-2,4.19,4.19,0,0,1-.61-.45,8.17,8.17,0,0,0,.91,2.73A13.07,13.07,0,0,0,39.2,172.1Z"/><path class="cls-1" d="M66.29,191.24a5.89,5.89,0,0,1,.74-.67l-.15,0a5.76,5.76,0,0,0-1.6.56,5.24,5.24,0,0,0-1.22.92l-.29.26a12.13,12.13,0,0,1-2.32,1.47,38.88,38.88,0,0,1-8.8,3.12l-.55.14a15.18,15.18,0,0,1-2.32.5,16.06,16.06,0,0,1-5.61-.53,31.93,31.93,0,0,1-4.72-1.38,5.06,5.06,0,0,0-1.84-.46,3.89,3.89,0,0,0-.78.08,7,7,0,0,1-3.19-.11c-.31-.09-.77-.22-.84-.26a11.59,11.59,0,0,1,3.08-1.07c1.21-.33,2.72-.75,4.48-1.31,2.37-.76,8.79-2.64,10.08-2.31a2.45,2.45,0,0,0,1,0c.38-.07.83-.21.82-.53s-.45-.42-1.35-.53a12.85,12.85,0,0,0-2.79-.06c-.41,0-.59.07-.94.13l-1,.17c-1,.15-1.55.21-2,.26a10.14,10.14,0,0,0-1.26.19,10.59,10.59,0,0,0-1.9.57c-.28.1-.56.21-.91.32a12.57,12.57,0,0,1-5.15.23,28.18,28.18,0,0,1-7.3-1.7,28.27,28.27,0,0,1-7.75-3.81l-.61-.48a12.77,12.77,0,0,0-3.63-2.25l-.09,0-.59-.23c.71-.07,3.09-.3,4.41-.4a19.39,19.39,0,0,1,3.52,0c1.12.08,2.67.19,5.66.27a27.58,27.58,0,0,1,5.56.43c.35.1.71.2.83-.07s-.19-.47-.49-.67a4.58,4.58,0,0,0-1.08-.54,2.59,2.59,0,0,1-1-.57,4.34,4.34,0,0,0-1.31-.75,4,4,0,0,0-1.41-.28,4.19,4.19,0,0,0-1,.13,18.46,18.46,0,0,1-3.5.35,13.63,13.63,0,0,1-4.74-.78,19.12,19.12,0,0,1-6.88-3.41,10.16,10.16,0,0,1-2-2.17,11.65,11.65,0,0,0-2.61-2.66c-.48-.37-.89-.66-1.24-.91a6.42,6.42,0,0,1-1.95-1.8,7.69,7.69,0,0,1-.62-1.06,22.33,22.33,0,0,0-1.29-2.25l0-.06,0-.05c.17.12.5.37,1.05.74a7,7,0,0,0,2.71.94l.09,0a42.57,42.57,0,0,1,4.88,1.14,5.61,5.61,0,0,1,.83.32c.3.15.82.4,2.26,1l2,.79a11,11,0,0,1,2.54,1.18l.1.06c.81.54,1.1.72,1.29.48s0-.39-.22-.67l-.11-.13a4.47,4.47,0,0,1-.55-.87c-.14-.24-.3-.55-.6-1a5,5,0,0,0-1-1.43,3.59,3.59,0,0,0-1.79-.48,5.76,5.76,0,0,0-1.09.07,8.88,8.88,0,0,1-4-.68,11.7,11.7,0,0,1-4.46-2.91,15.19,15.19,0,0,1-2.72-4,28.28,28.28,0,0,1-2.12-5.14c-.46-1.4-.72-2.45-.95-3.38a14.74,14.74,0,0,0-1-3.07c0-.1-.1-.19-.13-.27l.05,0a8.25,8.25,0,0,0,3.18,1.7l.59.22c1.55.6,2.78,1.86,5.22,4.38.49.5,1,1,1.5,1.45.66.62,1.34,1.27,2,2,.79.87,1.17,1.21,1.48,1s.23-.35-.06-1.28a7.15,7.15,0,0,0-.4-1,4.31,4.31,0,0,1-.24-.61,7.21,7.21,0,0,1-.23-1,2.13,2.13,0,0,0-.49-1.24,2.71,2.71,0,0,0-.51-.43A8.5,8.5,0,0,0,10,151.85c-2.42-.69-4.53-3.67-4.55-3.7a14.23,14.23,0,0,1-1.9-4.72c-.28-1-.43-1.8-.72-3.35-.26-1.39-.4-2.38-.51-3.17a9.78,9.78,0,0,0-.77-3.13l0-.1-.2-.45c.22.2.45.39.68.57s.55.45.8.7a9.27,9.27,0,0,0,1.59,1.21c.45.29,1,.62,1.64,1.13a12.43,12.43,0,0,1,3.17,2.86l.41.69c.32.55.76,1.29,1.46,2.41.46.73.84,1.27,1.26,1.14s.34-.48.38-.85A3.49,3.49,0,0,0,12.6,142c0-.15,0-.31-.06-.5a3.37,3.37,0,0,1,0-.84,2,2,0,0,0,0-.87,3.27,3.27,0,0,0-.49-1.13,3.25,3.25,0,0,0-1.8-1.15,9.82,9.82,0,0,1-.92-.37,6.18,6.18,0,0,1-2.18-1.92c-1.51-1.9-1.51-4.34-1.52-5.95,0-.4,0-.79,0-1.2a28,28,0,0,0,0-3.42c0-.49-.06-.74-.1-1.11-.09-.75-.26-1.66-.42-2.54-.21-1.18-.43-2.4-.49-3.32a0,0,0,0,0,0,0,2.67,2.67,0,0,1,.22.34l0,.06a11.37,11.37,0,0,0,1.17,1.48c.23.25.45.51.67.78,1.07,1.34,1.54,1.86,1.82,2.17a5.06,5.06,0,0,1,.62.79,16.83,16.83,0,0,1,2.28,4.46,4.37,4.37,0,0,0,1,1.8c.19.21.48.55.78.4s.21-.4.12-1c0-.2-.07-.44-.11-.72s-.07-.67-.08-.88a4.41,4.41,0,0,0-.12-.85,6.5,6.5,0,0,0-.4-1.2,6.75,6.75,0,0,0-1.29-1.88l-.16-.2a11.58,11.58,0,0,1-1.89-2.66,7.42,7.42,0,0,1-.58-3.54,14.1,14.1,0,0,1,.59-3.2c.45-1.88.73-3,.9-3.68a8.74,8.74,0,0,0,.31-1.44,17.48,17.48,0,0,0,.07-5,2.2,2.2,0,0,1-.07-.33l.14.15a3.94,3.94,0,0,1,.71,1.29,5.22,5.22,0,0,0,.71,1.42c.17.25.36.54.58.94a18.13,18.13,0,0,1,1.95,7.1,5.28,5.28,0,0,0,1,3c.11.1.39.37.69.27s.32-.44.35-.66a.61.61,0,0,1,0-.15,7.07,7.07,0,0,0,.13-2.75c-.09-.83-.2-1.38-.28-1.82-.05-.2-.08-.39-.11-.57a10,10,0,0,1,.55-4.45,22,22,0,0,1,2.14-5.08,35.71,35.71,0,0,1,2.32-3.71,16.74,16.74,0,0,1,2.35-2.79,11,11,0,0,0,1.81-2.2s2.28-3.45,3.83-4.2l.15-.07-.11.19a39.18,39.18,0,0,0-2,6.15c-.47,1.71-1,3.47-1.44,5-2.19,7.1-3,9.61-4.75,10.7A11.47,11.47,0,0,0,18,114.45l-.15.31c-.09.19-.21.46-.45.91l-.09.18c-.28.52-.4.76-.2,1s.68,0,1-.26A3.06,3.06,0,0,0,19.13,115c.43-1.32,2.51-2.31,4.53-3.27a4,4,0,0,1,.62-.22c.47-.15,1.46-.45,3.93-1.29l.15,0A9.77,9.77,0,0,1,30,109.7h0A6.66,6.66,0,0,1,29,111a31.52,31.52,0,0,0-2.54,3.32,23.68,23.68,0,0,0-1.68,3.11,12.2,12.2,0,0,1-2.15,3.44,17.51,17.51,0,0,1-2.39,2.25,11.72,11.72,0,0,1-3.41,2,8.32,8.32,0,0,1-1.18.33,2,2,0,0,0-1.25.61,3.18,3.18,0,0,0-.53,3.18.72.72,0,0,0,.46.5c.49.12.94-.54,1.38-1.32,1-1.81,3.2-3.21,4.65-4.14a14.69,14.69,0,0,1,5.49-1.73c.27,0,.32,0,.32,0,.07.18-.52.94-1,1.56s-1.05,1.38-1.59,2.24a9.13,9.13,0,0,0-1.1,2.47,12.63,12.63,0,0,1-1.1,2.66c-1.26,2.35-1.89,3.54-3.29,4.44-.86.55-3.55,2-4.48,2.08a.88.88,0,0,0-.81.38.72.72,0,0,0,0,.63,2.68,2.68,0,0,1,.12,1.06,15,15,0,0,0,.16,2.44c.05.38.1.71.38.75s.53-.41.8-1.18l.05-.16c.1-.29.32-.91,2.75-3.15,1.78-1.64,3.07-2.83,4.42-3.33l.15,0,1.95-.45a2.44,2.44,0,0,1,.57-.1,4,4,0,0,1-.35.66l-.11.17s-.26.43-1.07,2a6.16,6.16,0,0,0-.62,2.66l0,.38a15.76,15.76,0,0,1-2.34,6.48c-1.3,2.09-3.51,4.46-4.29,4.78a1.36,1.36,0,0,0-.8.69,1.3,1.3,0,0,0-.07.69c.75,4.54.94,5.59,1.51,5.59h0c.39,0,.41-.46.45-1.21a13.29,13.29,0,0,1,.61-3.65c.38-1.17,1.59-2.81,4-6.08.65-.88,2.63-3.21,3.91-3.36h0a.93.93,0,0,1-.12.19c-.69,1-.65,4-.62,4.9a18,18,0,0,0,.22,3.6,10.51,10.51,0,0,1,.12,2.92c-.11,1.23-.6,5.37-2.39,7.12A10.12,10.12,0,0,0,20.32,166a2.52,2.52,0,0,0-.36.88c-.15,1,.41,1.7,1.11,2.65a5.38,5.38,0,0,0,1.32,1.31,3.07,3.07,0,0,1,.58.5.82.82,0,0,0,.59.33.56.56,0,0,0,.52-.22.71.71,0,0,0-.11-.71,11.58,11.58,0,0,1-.18-3.95,13.82,13.82,0,0,1,1.81-5.43,20.62,20.62,0,0,1,1.33-2,8.66,8.66,0,0,0,1-1.63,1.24,1.24,0,0,1,.3-.54c-.33,1.77,1.3,5.94,1.37,6.13a29.55,29.55,0,0,1,1.65,6.21,21.2,21.2,0,0,1,.32,6.14c-.07.37-.11.74-.15,1.1s-.09.77-.16,1.14l0,.09a1.3,1.3,0,0,0,0,.78c.15.48.54.66,1.09.91.23.1.5.22.81.39A8.61,8.61,0,0,1,35,181.41l.06.06a6.08,6.08,0,0,0,1.39,1c.42.23.64.34.84.19s.07-.63-.51-1.58a18.61,18.61,0,0,1-2.24-4.7,15.4,15.4,0,0,1,.06-7.43,15.18,15.18,0,0,1,1.12-2.7,2.13,2.13,0,0,1-.31-.49l-.08.15a17.26,17.26,0,0,0-1.22,2.91,15.73,15.73,0,0,0-.05,7.7,19.25,19.25,0,0,0,2.29,4.82c.16.27.33.54.44.75l-.11-.06a6.33,6.33,0,0,1-1.28-.95l-.06-.07a9.09,9.09,0,0,0-1.95-1.34c-.32-.17-.59-.3-.83-.41-.53-.23-.75-.34-.83-.6a1,1,0,0,1,0-.53l0-.09c.08-.39.12-.79.16-1.18s.08-.72.15-1.06a21.34,21.34,0,0,0-.32-6.32,30.1,30.1,0,0,0-1.67-6.31c-.5-1.27-1.71-4.83-1.3-6,.06-.17.19-.53-.06-.69s-.5.09-.64.23a1.9,1.9,0,0,0-.62.9,7.21,7.21,0,0,1-1,1.5,22.34,22.34,0,0,0-1.35,2,14.36,14.36,0,0,0-1.88,5.63,12.23,12.23,0,0,0,.19,4.12.66.66,0,0,0,.07.15.79.79,0,0,1,.08.16h0a.41.41,0,0,1-.24-.16,3.4,3.4,0,0,0-.66-.57,5,5,0,0,1-1.22-1.21c-.66-.89-1.13-1.53-1-2.27a2,2,0,0,1,.29-.71,9.75,9.75,0,0,1,1.86-2.53c1.86-1.82,2.39-5.81,2.54-7.45a10.79,10.79,0,0,0-.13-3,17.51,17.51,0,0,1-.21-3.44h0v-.11c0-1.35,0-3.84.54-4.6.09-.12.36-.51.17-.78a.49.49,0,0,0-.53-.17c-1.77.19-4.16,3.42-4.27,3.55-2.44,3.32-3.67,5-4.07,6.23a13.72,13.72,0,0,0-.64,3.77c0,.2,0,.41,0,.57a37.8,37.8,0,0,1-1-5,.76.76,0,0,1,0-.41.92.92,0,0,1,.54-.44c.93-.37,3.25-2.93,4.51-5a16.23,16.23,0,0,0,2.42-6.7l0-.39a5.66,5.66,0,0,1,.56-2.46c.81-1.56,1.06-2,1.06-2l.1-.17c.34-.55.58-.94.35-1.24s-.6-.18-1.1-.07l-1.95.45-.22.06c-1.44.54-2.76,1.75-4.58,3.43-2.52,2.33-2.76,3-2.88,3.36l-.06.16c0,.12-.12.36-.2.56v0a15,15,0,0,1-.15-2.37,3,3,0,0,0-.17-1.27c-.06-.12-.06-.17,0-.19s0-.09.41-.11c1.11,0,4-1.7,4.71-2.16,1.51-1,2.2-2.27,3.46-4.63A13.46,13.46,0,0,0,23,129,8.39,8.39,0,0,1,24,126.63c.52-.85,1.1-1.6,1.56-2.21.83-1.08,1.33-1.73,1-2.17a.84.84,0,0,0-.79-.2,14.94,14.94,0,0,0-5.69,1.81l-.27.18.74-.57a17.06,17.06,0,0,0,2.44-2.3,12.89,12.89,0,0,0,2.24-3.56,21.42,21.42,0,0,1,1.64-3,30,30,0,0,1,2.5-3.26c.87-1,1.31-1.54,1-1.93s-.66-.19-2.16.32l-.15,0c-2.47.83-3.44,1.13-3.91,1.28a4.61,4.61,0,0,0-.69.25c-2.12,1-4.3,2-4.8,3.58a2.51,2.51,0,0,1-.87,1.3l-.17.12.1-.19.1-.18c.23-.46.36-.74.45-.93l.14-.27a11.18,11.18,0,0,1,3.17-3.07c1.88-1.19,2.69-3.58,5-11,.48-1.55,1-3.32,1.44-5a42.51,42.51,0,0,1,1.9-6c.21-.31.39-.66.19-.89s-.64,0-.88.06c-1.66.81-3.92,4.23-4,4.38a10.66,10.66,0,0,1-1.74,2.11A17.75,17.75,0,0,0,21,98.13a35.26,35.26,0,0,0-2.35,3.76,22.55,22.55,0,0,0-2.19,5.19,10.51,10.51,0,0,0-.56,4.65c0,.2.07.39.12.6a16.3,16.3,0,0,1,.27,1.77,6.52,6.52,0,0,1-.12,2.57c0,.06,0,.13,0,.22s0,.15,0,.22A.69.69,0,0,1,16,117a4.77,4.77,0,0,1-.88-2.66,18.48,18.48,0,0,0-2-7.31,10.17,10.17,0,0,0-.6-1,4.71,4.71,0,0,1-.65-1.29,4.2,4.2,0,0,0-.81-1.46c-.27-.31-.55-.6-.82-.47s-.25.52-.12,1.11A16.94,16.94,0,0,1,10,108.7a7.38,7.38,0,0,1-.3,1.37l-.9,3.68a14.46,14.46,0,0,0-.6,3.31,7.93,7.93,0,0,0,.62,3.76,12.26,12.26,0,0,0,2,2.78l.17.2a6.45,6.45,0,0,1,1.2,1.75,6.75,6.75,0,0,1,.38,1.11,5.09,5.09,0,0,1,.1.77c0,.22,0,.48.09.91s.08.54.11.74,0,.16,0,.23l-.08-.08a4,4,0,0,1-.84-1.57A16.81,16.81,0,0,0,9.6,123a6,6,0,0,0-.66-.84c-.28-.31-.74-.82-1.8-2.15-.22-.28-.45-.54-.69-.81a10.33,10.33,0,0,1-1.11-1.4l0-.06c-.29-.47-.55-.91-.89-.79s-.27.53-.25.78a31.73,31.73,0,0,0,.5,3.37c.17.91.32,1.78.41,2.52,0,.35.06.59.1,1.07a27.24,27.24,0,0,1,0,3.37c0,.42,0,.81,0,1.22,0,1.68,0,4.22,1.63,6.26a6.62,6.62,0,0,0,2.35,2.06,8.19,8.19,0,0,0,1,.39,2.77,2.77,0,0,1,1.56,1,2.63,2.63,0,0,1,.41.94,1.61,1.61,0,0,1,0,.69,3.63,3.63,0,0,0-.05,1c0,.21,0,.38.07.54a3.38,3.38,0,0,1,0,.93c0,.1,0,.27-.05.38a4.23,4.23,0,0,1-.66-.89c-.7-1.11-1.14-1.85-1.46-2.39-.17-.3-.3-.53-.42-.71a12.56,12.56,0,0,0-3.3-3c-.68-.51-1.2-.84-1.65-1.14a8.79,8.79,0,0,1-1.52-1.15c-.27-.26-.56-.49-.84-.72s-.47-.39-.69-.6l-.05,0c-.31-.29-.54-.51-.77-.35s-.13.58.27,1.46l0,.09a10,10,0,0,1,.73,3c.11.8.25,1.79.51,3.19.29,1.57.44,2.36.73,3.39a14.44,14.44,0,0,0,2,4.88s2.23,3.15,4.83,3.89a8.09,8.09,0,0,1,2.67,1.28,1.85,1.85,0,0,1,.41.34,1.64,1.64,0,0,1,.38,1,6.48,6.48,0,0,0,.24,1.09,5.4,5.4,0,0,0,.27.67,7.57,7.57,0,0,1,.37,1c.07.23.12.4.15.52a9.56,9.56,0,0,1-.75-.77c-.63-.69-1.32-1.34-2-2-.49-.47-1-1-1.48-1.44-2.49-2.57-3.75-3.85-5.39-4.5l-.62-.22a8,8,0,0,1-3-1.61c-.38-.39-.68-.64-.93-.46s-.13.53.25,1.31a13.52,13.52,0,0,1,1,2.94c.22.89.5,2,1,3.41a29.18,29.18,0,0,0,2.16,5.23,15.9,15.9,0,0,0,2.8,4.06,12.28,12.28,0,0,0,4.65,3,9.22,9.22,0,0,0,4.26.69,4.75,4.75,0,0,1,1-.06,3,3,0,0,1,1.53.4,5.23,5.23,0,0,1,.89,1.27c.29.47.46.78.59,1a5.27,5.27,0,0,0,.3.53l-.09-.06a11.67,11.67,0,0,0-2.64-1.23l-2-.79c-1.43-.57-1.94-.81-2.24-1a6.08,6.08,0,0,0-.89-.35,44.09,44.09,0,0,0-4.94-1.15l-.09,0A6.69,6.69,0,0,1,5,165.62c-.81-.55-1.14-.82-1.15-.82l-.35-.29c-.34-.29-.51-.43-.71-.27s-.1.44.49,1.37l0,.06c.7,1.1,1,1.71,1.27,2.2A7.76,7.76,0,0,0,5.26,169a6.94,6.94,0,0,0,2.07,1.92c.35.25.75.53,1.22.89a11.27,11.27,0,0,1,2.52,2.57,10.68,10.68,0,0,0,2.14,2.26,19.41,19.41,0,0,0,7.05,3.5,14.39,14.39,0,0,0,4.9.8,18.16,18.16,0,0,0,3.62-.37,3.36,3.36,0,0,1,2.1.13,3.69,3.69,0,0,1,1.17.68,3.2,3.2,0,0,0,1.14.65s.19.07.47.2a46.34,46.34,0,0,0-5.16-.32c-2.95-.08-4.49-.19-5.61-.27a20.07,20.07,0,0,0-3.59,0c-1.56.12-4.6.42-4.61.43-.23,0-.61,0-.67.3s.29.5,1.34.87l.08,0a12.14,12.14,0,0,1,3.49,2.17l.61.48a28.66,28.66,0,0,0,7.9,3.89,28.57,28.57,0,0,0,7.42,1.73,13.18,13.18,0,0,0,5.34-.25c.36-.11.65-.22.94-.34a10,10,0,0,1,1.82-.54,9.33,9.33,0,0,1,1.21-.18c.43-.05,1-.12,2-.27l1-.17a7.56,7.56,0,0,1,.9-.12,12.6,12.6,0,0,1,2.69.06c.1,0,.31,0,.51.07h0a1.75,1.75,0,0,1-.75,0c-1.65-.43-9.47,2-10.35,2.32-1.76.56-3.26,1-4.46,1.31-2.55.71-3.51,1-3.44,1.57,0,.4.55.54,1.2.72a7.42,7.42,0,0,0,3.46.11,3.69,3.69,0,0,1,2.31.36,31.41,31.41,0,0,0,4.79,1.41,20.87,20.87,0,0,0,4.5.61,12.46,12.46,0,0,0,1.27-.07,17.09,17.09,0,0,0,2.39-.51l.55-.14a39.28,39.28,0,0,0,8.91-3.17,12.92,12.92,0,0,0,2.41-1.53l.3-.28a4.88,4.88,0,0,1,1.12-.84,4.23,4.23,0,0,1,.75-.32S66.28,191.25,66.29,191.24Zm-51.06-63c-.56,1-.77,1-.8,1s0,0-.12-.2a2.72,2.72,0,0,1,.44-2.66,1.56,1.56,0,0,1,1-.46A9.46,9.46,0,0,0,17,125.6a9.63,9.63,0,0,0,1.61-.76A11.28,11.28,0,0,0,15.23,128.22Z"/><path class="cls-1" d="M49.09,175.21a6.45,6.45,0,0,0,1.34.72c.46.21,1.15.52,2.41,1.16s2.25,1.21,3.06,1.66a42.21,42.21,0,0,1,5.15,3.16c2.22,1.77,3.83,3.05,4,4.9a8.17,8.17,0,0,1,0,.86c0,.73,0,1.43.5,1.74.3.18.56.14,1.52,0l.19,0,.68-.11.31-.05.12-.16a3,3,0,0,1,.44-.44l-.94.16-.7.11-.19,0c-.84.14-1,.17-1.17.1-.29-.17-.27-.7-.26-1.31,0-.3,0-.61,0-.92-.19-2.06-1.87-3.39-4.19-5.24a42.85,42.85,0,0,0-5.26-3.23c-.77-.43-1.72-1-3-1.64s-2-1-2.44-1.17a6.45,6.45,0,0,1-1.26-.69,10.17,10.17,0,0,1-1.08-.85,1.8,1.8,0,0,1-.8-.19,3.44,3.44,0,0,1-.36-.23A12.65,12.65,0,0,0,49.09,175.21Z"/></g><g id="contorno"><path class="cls-2" d="M135.11,133h-104l.09-.32A67.9,67.9,0,0,1,39,115.78c.18-.27.29-.45.32-.5l.07-.15h87.37l.08.12c6.8,10.61,8.18,17.38,8.19,17.45Zm-103.37-.5H134.5c-.35-1.4-2.1-7.65-8-16.86H39.71l-.26.42A67,67,0,0,0,31.74,132.48Z"/><path class="cls-2" d="M83.09,184.84c-.33,0-1-.46-3.09-2a32.34,32.34,0,0,0-3.45-2.36,28,28,0,0,0-5-1.93c-1.64-.48-3.44-.91-5.06-1.21s-2.91-.45-4.71-.62l-1-.1c-1.67-.16-3.55-.34-5.27-.59A43.44,43.44,0,0,1,50,174.9a28.46,28.46,0,0,1-4.55-1.59,29.67,29.67,0,0,1-4.63-2.57A39.87,39.87,0,0,1,36.14,167a24.19,24.19,0,0,1-3.64-4.13,26,26,0,0,1-2.27-4.46,24.15,24.15,0,0,1-1.75-5.33,25.9,25.9,0,0,1-.17-6.55,58.77,58.77,0,0,1,1-6.77,60.05,60.05,0,0,1,1.62-6.31c.09-.26.17-.52.26-.78l0-.18H135l.06.18c.17.53,4.17,13.09,2.68,20.42-2,9.91-7.79,16.75-17.19,20.34-5.79,2.21-7.78,2.38-11.08,2.67a93.52,93.52,0,0,0-13.24,2,31.39,31.39,0,0,0-12.93,6.64h0A.3.3,0,0,1,83.09,184.84Zm-.13-.46ZM31.58,133c-.06.21-.13.41-.19.61a59.56,59.56,0,0,0-1.61,6.25,56.08,56.08,0,0,0-1,6.72A25.34,25.34,0,0,0,29,153a23.49,23.49,0,0,0,1.71,5.22,25.39,25.39,0,0,0,2.23,4.38,23.53,23.53,0,0,0,3.56,4,38.73,38.73,0,0,0,4.6,3.69,28.63,28.63,0,0,0,9,4.1,44.26,44.26,0,0,0,5.48,1.12c1.71.24,3.59.42,5.24.58l1,.1c1.81.18,3.17.33,4.75.63a50.45,50.45,0,0,1,5.11,1.22,29.28,29.28,0,0,1,5.09,2,33.34,33.34,0,0,1,3.51,2.41A25.64,25.64,0,0,0,83,184.32a31.93,31.93,0,0,1,13.09-6.69,94.83,94.83,0,0,1,13.29-2c3.26-.28,5.23-.45,11-2.64,9.22-3.52,14.89-10.24,16.87-20,1.37-6.75-2.13-18.43-2.61-20Z"/><path class="cls-2" d="M127,115.63H82.86V57a.36.36,0,0,1,.2-.32.36.36,0,0,1,.36,0c.59.48,3.61,2.91,4.77,3.63a21.13,21.13,0,0,0,3.88,2,27.34,27.34,0,0,0,4.7,1.21,21.7,21.7,0,0,0,3.51.32,20.84,20.84,0,0,0,3-.18c1.09-.15,2.34-.39,3.44-.66a22.28,22.28,0,0,0,3.12-1c1-.39,2.17-.94,3.32-1.51.83-.41,1.47-.76,1.86-1l.17-.1c.39-.2.47-.25.6-.21s.11,0,3.44,3.54,9.77,10.32,13,13.77,3.31,3.5,3.3,3.66v.11l-.08.07-.6.49c-1,.81-1.81,1.52-2.45,2.12a21.12,21.12,0,0,0-2.57,2.84,39.45,39.45,0,0,0-2.9,4.41,21.09,21.09,0,0,0-2.06,4.83,29.23,29.23,0,0,0-.86,5.57,30.33,30.33,0,0,0,0,5.84,23,23,0,0,0,1.3,5.17c.43,1.2.93,2.42,1.48,3.63Zm-43.68-.5h42.9c-.49-1.1-.94-2.22-1.33-3.31a23,23,0,0,1-1.33-5.29,31.27,31.27,0,0,1,0-5.93,29.34,29.34,0,0,1,.88-5.66,22.08,22.08,0,0,1,2.1-5,40.4,40.4,0,0,1,2.94-4.46,20.86,20.86,0,0,1,2.63-2.9c.65-.61,1.48-1.33,2.47-2.15l.4-.33-3.06-3.26c-3.25-3.45-9.76-10.33-13-13.78-2-2.15-2.92-3.08-3.19-3.35l-.24.12-.17.1c-.4.21-1,.56-1.88,1-1.16.58-2.38,1.13-3.36,1.53a23.1,23.1,0,0,1-3.18,1,34,34,0,0,1-3.49.67,19.29,19.29,0,0,1-3.12.19,21.69,21.69,0,0,1-3.59-.33,28,28,0,0,1-4.78-1.23,21.9,21.9,0,0,1-4-2c-1.06-.65-3.61-2.69-4.56-3.45Z"/><path class="cls-2" d="M83.36,115.63H39.18l.16-.35c.55-1.21,1-2.43,1.48-3.63a23.53,23.53,0,0,0,1.3-5.17,32,32,0,0,0,0-5.84,29.15,29.15,0,0,0-.87-5.57,21.22,21.22,0,0,0-2.05-4.83,40,40,0,0,0-2.91-4.41A21.75,21.75,0,0,0,33.75,83c-.65-.6-1.47-1.31-2.46-2.12l-.54-.45-.13-.11V80.2c0-.16,0-.16,3.3-3.66s9.76-10.32,13-13.77,3.33-3.51,3.43-3.54.21,0,.6.21l.15.09c.39.21,1,.56,1.89,1,1.14.57,2.35,1.12,3.32,1.51a21.74,21.74,0,0,0,3.11,1c1.1.27,2.36.51,3.44.66a21,21,0,0,0,3.05.18,21.91,21.91,0,0,0,3.51-.32,27.51,27.51,0,0,0,4.69-1.21,21.58,21.58,0,0,0,3.89-2c1-.65,3.65-2.73,4.72-3.6a.39.39,0,0,1,.4-.05.4.4,0,0,1,.22.35ZM40,115.13H82.86V57.33c-1.18,1-3.57,2.85-4.58,3.47a21.78,21.78,0,0,1-4,2,28.1,28.1,0,0,1-4.79,1.23,21.69,21.69,0,0,1-3.59.33,19.43,19.43,0,0,1-3.12-.19,34,34,0,0,1-3.49-.67,23.1,23.1,0,0,1-3.18-1c-1-.4-2.2-1-3.36-1.53-.86-.43-1.5-.78-1.9-1l-.15-.09-.24-.12L47.3,63.11l-13,13.78-3.06,3.26.4.33c1,.82,1.82,1.54,2.48,2.15a21.44,21.44,0,0,1,2.62,2.9A39.48,39.48,0,0,1,39.65,90a21.37,21.37,0,0,1,2.1,5,30.06,30.06,0,0,1,.89,5.66,32,32,0,0,1,0,5.93,23.18,23.18,0,0,1-1.32,5.29C40.89,112.91,40.44,114,40,115.13Zm43.11-58h0Z"/><path class="cls-2" d="M133.12,78.13,119,63.24l0-.12,4.45-22.68c.45-.69.92-1.41,1.29-1.9.55-.71,1.09-.71,5,2.07,4.11,2.9,11.91,8.86,15.73,11.86,4,3.2,4,3.38,4,3.73s0,.44-2.76,4.07c-1.54,2.06-4.11,5.4-7.09,9.27-2.06,2.67-4.29,5.56-6.43,8.36Zm-13.55-15,13.5,14.27,6.25-8.13c3-3.86,5.55-7.2,7.09-9.26,2.44-3.24,2.65-3.64,2.66-3.8a30.8,30.8,0,0,0-3.83-3.3c-3.81-3-11.6-9-15.71-11.85-3.89-2.75-4.11-2.47-4.33-2.17-.36.46-.81,1.15-1.24,1.82Z"/><path class="cls-2" d="M127.16,71.83,119,63.24l.79-3.7c2.15-3.12,4.58-6.65,5.82-8.4s1.39-1.83,1.56-1.89.25-.08,2.15,1.21c1.75,1.17,5.26,3.59,7.06,4.87s1.87,1.45,1.92,1.64.09.33-1.65,2.64c-1,1.35-3,3.93-5.17,6.66-1.39,1.77-2.85,3.63-4.17,5.33Zm-7.58-8.74,7.55,8,4-5.1c2.14-2.73,4.15-5.3,5.17-6.65a18.49,18.49,0,0,0,1.57-2.24,15.77,15.77,0,0,0-1.73-1.33c-1.8-1.28-5.3-3.69-7-4.87-.79-.53-1.53-1-1.75-1.12a15.44,15.44,0,0,0-1.28,1.68c-1.24,1.74-3.65,5.25-5.79,8.36Z"/><path class="cls-2" d="M100.2,64.33c-.42,0-.85,0-1.27,0l-.24,0,.12-32,.29.05c8,1.38,16.32,2.81,20.47,3.6s4.32,1,4.5,1.42.33.89-.4,5.16c-.68,4-2.3,11.89-3.87,19.51l-.35,1.68-3.71-3.89C114.56,60.48,107.71,64.33,100.2,64.33Zm-1-.52c8.45.42,16.37-4.5,16.45-4.55l.18-.11,3.34,3.5.15-.75c1.57-7.62,3.19-15.5,3.87-19.49s.53-4.62.42-4.9-.33-.39-4.12-1.11c-4.1-.78-12.24-2.18-20.18-3.55Z"/><path class="cls-2" d="M99.4,64.3h-.71V57.67l.24,0-.24-.08c.88-5,1.78-10.1,2.31-12.84s.7-3.25.85-3.5.48-.34,2.65.06,6.22,1.17,8.32,1.61,2.28.55,2.24,1c0,.21,0,.5-.58,3.69-.31,1.85-2.06,12.95-2.09,13.64v.15l-.14.07A32.66,32.66,0,0,1,99.4,64.3Zm-.21-.5a31.86,31.86,0,0,0,12.72-2.67c.17-1.55,1.81-11.9,2.09-13.54.54-3.17.56-3.46.58-3.65a11,11,0,0,0-1.85-.49c-2.1-.44-6.21-1.22-8.31-1.6a11.6,11.6,0,0,0-2.12-.31,14,14,0,0,0-.8,3.34c-.52,2.74-1.43,7.88-2.3,12.84h0Z"/><path class="cls-2" d="M98.48,64.32h0c-7.6-.55-13.52-5.5-15.15-7a.21.21,0,0,0-.3,0,25.55,25.55,0,0,1-14.45,6.89.71.71,0,0,1-.81-.71L67.5,33.44c0-1.27,0-2.58.09-3.35a3.23,3.23,0,0,1,.25-1.36c.19-.35.31-.57,5.62-.77,5.13-.19,15.14-.34,20.22-.31,5.42,0,5.5.26,5.64.63a5.41,5.41,0,0,1,0,1.59c0,.91,0,2.41-.06,4.94,0,4.23,0,12-.07,20.16l0,8.62a.72.72,0,0,1-.73.73Zm0-.5a.18.18,0,0,0,.16-.06.21.21,0,0,0,.08-.17l0-8.62c0-8.19,0-15.93.07-20.17,0-2.53,0-4,.06-4.94a9.92,9.92,0,0,0,0-1.41c-.2-.18-1.94-.28-5.18-.3-5.06,0-15.06.12-20.19.31-3.47.13-5.07.28-5.19.51a2.48,2.48,0,0,0-.2,1.14c0,.77-.07,2.07-.09,3.33l.22,30.08a.2.2,0,0,0,.07.16.23.23,0,0,0,.18.06A25,25,0,0,0,82.62,57a.72.72,0,0,1,1,0c1.61,1.48,7.42,6.34,14.86,6.87Z"/><path class="cls-2" d="M88.77,61.05a.71.71,0,0,1-.37-.1,26.74,26.74,0,0,1-5.16-3.67.24.24,0,0,0-.32,0l-3.54,2.81a.83.83,0,0,1-.5.16l-1.83-.07a.76.76,0,0,1-.6-.34c-.39-.59-.39-.59-.36-3.91v-.09c0-3.75.09-11.55.2-15.52.12-4.15.29-4.18.68-4.27a18,18,0,0,1,2.77,0l1.55,0,6.91.14h.91c1.43,0,1.54,0,1.71.28s.21.5.24,4.66c0,4,0,11.61,0,15.44,0,1.07,0,1.85,0,2.43,0,1.65,0,1.82-.46,1.87h0l-1.77.15Zm-5.69-4.34a.74.74,0,0,1,.5.2,26.57,26.57,0,0,0,5.06,3.61l.15,0,1.74-.15a13.32,13.32,0,0,0,0-1.37c0-.58,0-1.36,0-2.43,0-3.83,0-11.48,0-15.44a26.6,26.6,0,0,0-.17-4.4,10.7,10.7,0,0,0-1.29,0h-.9l-6.92-.14-1.55,0a19.72,19.72,0,0,0-2.65,0,22.94,22.94,0,0,0-.29,3.8c-.11,4-.17,11.76-.2,15.51v.09c0,3.16,0,3.16.27,3.61a.26.26,0,0,0,.21.13l1.83.07a.26.26,0,0,0,.17-.05l3.54-2.81A.78.78,0,0,1,83.08,56.71Z"/><path class="cls-2" d="M66.85,64.3a34.1,34.1,0,0,1-16.33-4.51l-1.63,1.7L45.3,40.19c-.21-1.7-.42-3.45-.41-4.33s.2-1,.6-1.17l.12,0a18.78,18.78,0,0,1,3.88-.73c2.85-.4,7.83-1,11.47-1.44l1.68-.2,3.86-.48.65-.08a.53.53,0,0,1,.44.11c.3.25.44.87.52,5.44.1,5.35.1,16.23.1,26.74v.23l-.23,0A9.81,9.81,0,0,1,66.85,64.3Zm-16.33-5a.54.54,0,0,1,.25.06,32.81,32.81,0,0,0,16.94,4.43c0-10.44,0-21.2-.1-26.5,0-1.57-.08-4.82-.35-5.08,0,0,0,0-.06,0l-.63.08-3.87.47L61,33c-3.63.44-8.61,1-11.45,1.44a19.37,19.37,0,0,0-3.78.7l-.13,0c-.17.06-.26.09-.26.7,0,.85.2,2.58.4,4.26l3.42,20.31,1-1A.46.46,0,0,1,50.52,59.29Z"/><path class="cls-2" d="M65.68,64.37A23.31,23.31,0,0,1,58,63.15l-.13,0,0-.14c-.53-2.89-1.11-5.94-1.64-8.73-.66-3.48-1.23-6.48-1.54-8.31-.61-3.56-.54-3.6-.21-3.76a9.83,9.83,0,0,1,2.16-.37l3.47-.5,5-.7c2.2-.31,2.2-.31,2.36-.12a2.41,2.41,0,0,1,.3.9c.12.57.31,1.54.49,2.51v0l0,20.31-.23,0C67.2,64.34,66.42,64.37,65.68,64.37Zm-7.37-1.64a23.82,23.82,0,0,0,9.43,1.05l0-19.83c-.19-1-.37-1.91-.49-2.47a4.16,4.16,0,0,0-.17-.64c-.22,0-.89.1-1.92.24l-5,.71-3.47.49c-1.41.2-1.83.26-2,.31a25.25,25.25,0,0,0,.45,3.25c.31,1.82.88,4.82,1.54,8.3C57.21,56.88,57.78,59.88,58.31,62.73Z"/><path class="cls-2" d="M70.14,205H70c-.13,0-.13,0-1.15-1.93-.64-1.2-2.81-5.25-3.85-7.28s-1-2.13-.9-2.39.18-.33,1.34-1.6,3.2-3.48,4.28-4.64,1.17-1.26,1.29-1.32a8.92,8.92,0,0,1,1.9-.34l.49-.07c1.73-.28,4.51-.71,6-.94,1.77-.26,1.91-.25,2.13-.19s.44.2,1.33,2.06c.81,1.69,2.24,4.86,3.24,7.1.87,2,.9,2,.88,2.23s-.06.19-.35.6c-.14.22-.37.54-.7,1s-.87,1.3-1.4,2.1c-.77,1.14-1.58,2.36-2.12,3.15-.93,1.34-1.09,1.51-1.35,1.62s-.42.17-2.3.31-5.11.32-6.94.43Zm11.18-20.25a15.48,15.48,0,0,0-1.79.22l-6,.93L73,186c-1.3.2-1.7.26-1.74.29s-.4.4-1.15,1.21c-1.08,1.16-3.17,3.43-4.28,4.64a11.49,11.49,0,0,0-1.25,1.44,11.68,11.68,0,0,0,.89,2c1,2,3.21,6.08,3.85,7.27h0c.51,1,.8,1.49.91,1.68l1.63-.08c1.83-.11,5.16-.3,6.94-.43a8,8,0,0,0,2.12-.26c.13-.06.28-.19,1.14-1.45.55-.79,1.36-2,2.12-3.15.53-.8,1-1.55,1.41-2.1s.55-.82.7-1,.25-.36.26-.39-.31-.77-.84-2c-1-2.23-2.42-5.4-3.23-7.08a6.11,6.11,0,0,0-1-1.8Z"/><path class="cls-2" d="M88.07,204.34l-.13,0c-.2,0-.32-.15-1-.91s-1.88-2.1-3.1-3.48l-.13-.14,2.8-4.2-4-9.08.49-.19c3.18-1.2,6.18-2.33,7.85-2.93a7.21,7.21,0,0,1,2.21-.64c.3,0,.48.1,1.51,1.23.79.88,2.1,2.4,3.16,3.62l1.39,1.62a4.32,4.32,0,0,1,.72.9c.09.2.09.31.09,2.11s0,4.87,0,6.5-.08,1.82-.25,2-.22.2-2.17.83-5.4,1.69-7.25,2.24A12.62,12.62,0,0,1,88.07,204.34Zm-3.73-4.59c1.18,1.32,2.33,2.62,3,3.32a4.56,4.56,0,0,0,.75.77,15.71,15.71,0,0,0,2-.54c1.84-.55,5.4-1.65,7.24-2.24a10.21,10.21,0,0,0,2-.72,13.2,13.2,0,0,0,.09-1.62c0-1.63,0-4.79,0-6.49a10,10,0,0,0,0-1.91,6.54,6.54,0,0,0-.64-.78l-1.39-1.61c-1-1.22-2.37-2.74-3.15-3.62-1-1.06-1.07-1.06-1.14-1.06a7.46,7.46,0,0,0-2,.61c-1.67.6-4.81,1.78-7.84,2.93l3.93,8.85Z"/><path class="cls-2" d="M34.35,76.22l-.24-.3L21.92,60.08C19,56.26,19,56.24,18.92,56s-.11-.55,3.72-3.65c2.27-1.84,6-4.79,9.31-7.39l5.27-4.16c3.31-2.63,4.09-3.32,4.46-3.66l.15-.13a.93.93,0,0,1,1.41,0,14.6,14.6,0,0,1,1.89,2c.51.64.62.93,1.24,4.5s1.8,10.69,2.94,17.54l-.5.08c-1.14-6.85-2.31-13.94-2.93-17.53s-.71-3.75-1.14-4.28a14.3,14.3,0,0,0-1.8-1.88c-.41-.31-.5-.23-.78,0l-.14.13c-.38.33-1.17,1-4.49,3.67L32.26,45.3c-3.3,2.6-7,5.55-9.31,7.39a27.17,27.17,0,0,0-3.54,3.15c0,.2.44.73,2.91,3.94,2.71,3.53,7,9,12.19,15.83l.23.31Z"/><path class="cls-2" d="M40.72,70.06l-.17-.24C36.94,65,33.35,60,32.36,58.64,30.65,56.25,30.67,56,31,55.77l.05-.05c.14-.14.44-.41,1.88-1.54,1.59-1.25,4.87-3.77,6.59-5s2.11-1.28,3.4.37,3.49,4.7,5.71,7.74l.07.15L49.32,61ZM31.33,56.12a12.71,12.71,0,0,0,1.44,2.23c1,1.36,4.46,6.14,8,10.93l8-8.45-.58-3.27c-2.21-3-4.5-6.18-5.7-7.73s-1.11-1.43-2.71-.27-5,3.76-6.57,5C31.8,55.69,31.5,56,31.37,56.08Z"/><path class="cls-2" d="M83.36,110.39H41.24l.1-.32a20.38,20.38,0,0,0,.78-3.59,30.3,30.3,0,0,0,0-5.53l0-.27h13v.5H42.68a29.88,29.88,0,0,1-.07,5.35,20.7,20.7,0,0,1-.69,3.36H82.86v-8.71H72.17v-.5H83.36Z"/><path class="cls-2" d="M83.36,77.48H33l.89-.94,8.82-9.32.07-.08H83.36ZM34.18,77H82.86V67.64H43l-8.75,9.25Z"/><path class="cls-2" d="M54.13,94.32,41,94.26,41,94.09a22.51,22.51,0,0,0-1.75-3.85,40,40,0,0,0-2.91-4.41,23,23,0,0,0-1.66-2l-.41-.42H58.79V84H35.41c.43.48.85,1,1.3,1.58A39.48,39.48,0,0,1,39.65,90a23.44,23.44,0,0,1,1.74,3.77l12.75.06Z"/><polygon class="cls-2" points="83.36 94.26 73.22 94.26 73.22 93.76 82.86 93.76 82.86 83.95 67.36 83.95 67.36 83.45 83.36 83.45 83.36 94.26"/><rect class="cls-2" x="82.86" y="56.81" width="0.5" height="58.57"/><rect class="cls-2" x="39.57" y="115.13" width="87.08" height="0.5"/><rect class="cls-2" x="31.4" y="132.48" width="103.41" height="0.5"/><path class="cls-2" d="M93,115.38h-.5v-14.3H93Zm0-26.64h-.5V62.84H93Z"/><path class="cls-2" d="M102.72,115.38h-.5v-7.85h.5Zm0-33.4h-.5V64.05h.5Z"/><path class="cls-2" d="M111.91,115.38h-.5v-10.5h.5Zm0-30.54h-.5V61.53h.5Z"/><rect class="cls-2" x="121.34" y="65.58" width="0.5" height="49.8"/><path class="cls-2" d="M61.84,176.71h-.26c-.13,0-13.55-.59-20.76-5.95l-.1-.08V132.48H61.84v14.37h-.5V133H41.22v37.44c6.56,4.8,18.24,5.65,20.12,5.76v-6.37h.5Z"/><path class="cls-2" d="M82.79,184.88l-.14-.11s-3.08-2.38-4.74-3.44a57.69,57.69,0,0,0-5.35-2.47l-.15-.06V162.36h.5v16.1a52.16,52.16,0,0,1,5.27,2.45c1.47.94,4,2.87,4.63,3.35.72-.49,3.71-2.55,4.84-3.21s4.43-2.1,5.19-2.43V163.53h.5V179l-.15.06s-4.09,1.77-5.29,2.47-4.92,3.27-5,3.29ZM93.34,143.5h-.5V133H72.91v6h-.5v-6.46H93.34Z"/><rect class="cls-2" x="105.41" y="170.02" width="0.5" height="6.32"/><path class="cls-2" d="M105.41,176.47V170h.5V176c1.68-.07,11.36-.7,19.75-5.62V133H105.91v12.74h-.5V132.48h20.75v38.14l-.13.08c-9.31,5.51-20.26,5.77-20.37,5.77Z"/><path class="cls-3" d="M47.24,129.33h-1.8V121H42.28v-1.5h8.11V121H47.24Z"/><path class="cls-3" d="M53.58,127.83H58.4v1.5H51.78v-9.8h6.35V121H53.58v2.53h3.91v1.51H53.58Z"/><path class="cls-3" d="M65.41,124.08q1.05,1.5,1.71,2.67h0c0-1.27-.08-2.2-.08-2.78v-4.44h1.79v9.8H67l-3.2-4.51c-.56-.78-1.14-1.69-1.74-2.72h0q.09,1.8.09,2.79v4.44H60.3v-9.8h1.88Z"/><path class="cls-3" d="M71.21,129.33v-9.8h2.6l.7,0,.69.07.65.1a4.45,4.45,0,0,1,.58.15,4.94,4.94,0,0,1,1.38.68,4,4,0,0,1,1,1,4.53,4.53,0,0,1,.62,1.29,5.48,5.48,0,0,1,.2,1.55,6,6,0,0,1-.17,1.49,4.44,4.44,0,0,1-.54,1.26,4.09,4.09,0,0,1-.9,1,4.68,4.68,0,0,1-1.29.71,6.86,6.86,0,0,1-1.42.35,11.87,11.87,0,0,1-1.78.12Zm2.54-1.5a5.67,5.67,0,0,0,2.46-.44,2.64,2.64,0,0,0,1.19-1.12,4,4,0,0,0,.4-1.89,4.59,4.59,0,0,0-.13-1.09,3.21,3.21,0,0,0-.38-.86,2.7,2.7,0,0,0-.61-.65,3.23,3.23,0,0,0-.8-.44,4.22,4.22,0,0,0-.93-.24A8.07,8.07,0,0,0,73.8,121H73v6.8Z"/><path class="cls-3" d="M83.34,127.83h4.82v1.5H81.55v-9.8H87.9V121H83.34v2.53h3.91v1.51H83.34Z"/><path class="cls-3" d="M91.86,119.53v8.3h4.59v1.5H90.07v-9.8Z"/><path class="cls-3" d="M103,129.33h-1.79v-9.8h6.24V121H103v2.53h3.81v1.51H103Z"/><path class="cls-3" d="M108.05,127.37h2v2h-2Z"/><path class="cls-3" d="M117.16,120.86a3.76,3.76,0,0,0-1.35.24,3,3,0,0,0-1.06.71,3.08,3.08,0,0,0-.69,1.14,4.33,4.33,0,0,0-.25,1.54A4.63,4.63,0,0,0,114,126a2.92,2.92,0,0,0,.65,1.1,2.73,2.73,0,0,0,1,.66,4,4,0,0,0,1.38.23,7.49,7.49,0,0,0,1.14-.09,6.83,6.83,0,0,0,1.08-.26v1.55a10.63,10.63,0,0,1-1.1.23,9.9,9.9,0,0,1-1.23.08,6.37,6.37,0,0,1-2.19-.35,4.34,4.34,0,0,1-1.58-1,4.16,4.16,0,0,1-1-1.55,5.79,5.79,0,0,1-.32-2,6.13,6.13,0,0,1,.34-2.08,4.68,4.68,0,0,1,1-1.66,4.36,4.36,0,0,1,1.6-1.1,5.61,5.61,0,0,1,2.18-.41,7.38,7.38,0,0,1,1.18.08,6.12,6.12,0,0,1,1,.24v1.52a7.41,7.41,0,0,0-1.09-.26A8.24,8.24,0,0,0,117.16,120.86Z"/><path class="cls-3" d="M121.2,127.37h2v2h-2Z"/><path class="cls-2" d="M103.72,170.64a4.72,4.72,0,0,1-4.33-2.11l-4.16-6.13a5.71,5.71,0,0,1-2.9,1.62,5.78,5.78,0,0,1-6.62-3.5H81.86a5.78,5.78,0,0,1-9.41,2l-3.59,5.25a5.5,5.5,0,0,1-10.33-2.62l2.07-15.88a7.87,7.87,0,0,1,3.69-5.69v-2.12a3.37,3.37,0,0,1,3.37-3.37h3.18a3.37,3.37,0,0,1,3.36,3.37v1.78H93.63v-1.78A3.37,3.37,0,0,1,97,138.08h3.17a3.37,3.37,0,0,1,3.37,3.37v1.74c.61.29,2.69,1.56,3.41,5.6v.07h0l2.26,16.24a4.77,4.77,0,0,1-1.31,3.65A5.76,5.76,0,0,1,103.72,170.64Zm-8.44-9,4.52,6.65a4.22,4.22,0,0,0,3.92,1.9,5.25,5.25,0,0,0,3.82-1.72,4.23,4.23,0,0,0,1.18-3.26l-2.28-16.34h0c-.79-4.29-3.22-5.21-3.25-5.22l-.16-.06v-2.08a2.88,2.88,0,0,0-2.87-2.87H97a2.87,2.87,0,0,0-2.87,2.87v2.28H73.7v-2.28a2.87,2.87,0,0,0-2.86-2.87H67.66a2.88,2.88,0,0,0-2.87,2.87v2.41l-.12.07a7.33,7.33,0,0,0-3.56,5.35h0L59,165.17a5,5,0,0,0,9.41,2.33l4-5.79.21.23a5.28,5.28,0,0,0,8.86-1.76l.06-.16h4.53l.06.17a5.28,5.28,0,0,0,6.11,3.34,5.16,5.16,0,0,0,2.85-1.7Z"/><path class="cls-2" d="M76.49,162.26a3.77,3.77,0,1,1,3.77-3.76A3.77,3.77,0,0,1,76.49,162.26Zm0-7a3.27,3.27,0,1,0,3.27,3.27A3.27,3.27,0,0,0,76.49,155.23Z"/><path class="cls-2" d="M91,162.26a3.77,3.77,0,1,1,3.76-3.76A3.77,3.77,0,0,1,91,162.26Zm0-7a3.27,3.27,0,1,0,3.26,3.27A3.27,3.27,0,0,0,91,155.23Z"/><path class="cls-2" d="M98.45,148.35a1.94,1.94,0,1,1,1.94-1.93A1.93,1.93,0,0,1,98.45,148.35Zm0-3.37a1.44,1.44,0,1,0,0,2.87,1.44,1.44,0,1,0,0-2.87Z"/><path class="cls-2" d="M98.45,156a1.94,1.94,0,1,1,1.94-1.94A1.94,1.94,0,0,1,98.45,156Zm0-3.38A1.44,1.44,0,1,0,99.89,154,1.44,1.44,0,0,0,98.45,152.6Z"/><path class="cls-2" d="M94.13,152.24a1.94,1.94,0,1,1,1.93-1.94A1.94,1.94,0,0,1,94.13,152.24Zm0-3.37a1.44,1.44,0,1,0,1.43,1.43A1.43,1.43,0,0,0,94.13,148.87Z"/><path class="cls-2" d="M102.63,152.24a1.94,1.94,0,1,1,1.94-1.94A1.94,1.94,0,0,1,102.63,152.24Zm0-3.37a1.44,1.44,0,1,0,1.44,1.43A1.43,1.43,0,0,0,102.63,148.87Z"/><rect class="cls-2" x="64.48" y="150.59" width="2.87" height="0.5"/><path class="cls-2" d="M67.37,151.12l-3,0v-3.21h3.11l1.67,1.55Zm-2.53-.53,2.33,0,1.22-1.18-1.14-1.06H64.84Z"/><rect class="cls-2" x="71.35" y="150.59" width="2.87" height="0.5"/><path class="cls-2" d="M71.33,151.12l-1.75-1.69,1.67-1.55h3.11v3.21Zm-1-1.68,1.22,1.18,2.33,0v-2.21H71.44Z"/><rect class="cls-2" x="70.49" y="144.36" width="0.5" height="2.87"/><path class="cls-2" d="M69.33,149l-1.55-1.66v-3.12H71l0,3Zm-1-1.85,1.06,1.13,1.18-1.22,0-2.34H68.28Z"/><rect class="cls-2" x="67.69" y="151.59" width="0.5" height="2.87"/><path class="cls-2" d="M70.9,154.6H67.69l0-3,1.69-1.74,1.55,1.67Zm-2.71-.5H70.4v-2.42l-1.06-1.13-1.18,1.21Z"/><path class="cls-2" d="M103.84,107.88a13,13,0,1,1,13-13A13,13,0,0,1,103.84,107.88Zm0-25.47a12.49,12.49,0,1,0,12.49,12.48A12.5,12.5,0,0,0,103.84,82.41Z"/><path class="cls-2" d="M94.89,101.68h-.1a4.51,4.51,0,0,1-1.08-.18,9.74,9.74,0,0,1-1.28-.51l-.08,0,0-.07A12.93,12.93,0,0,1,91,97v-.08l0-.08c.15-.26.31-.55.57-.94s.6-.86.83-1.14a1.46,1.46,0,0,1,.59-.5.41.41,0,0,1,.48.25,5.21,5.21,0,0,0,.35.52c.22.29.58.7.87,1l.22.25c.19.22.34.39.45.53a1.06,1.06,0,0,1,.27.51.62.62,0,0,1,0,.27c0,.07,0,.15,0,.27,0,.33,0,.87,0,1.38s0,1,0,1.37v.14c0,.4,0,.6-.14.75A.73.73,0,0,1,94.89,101.68Zm-2.18-1.11a9.26,9.26,0,0,0,1.14.45,3.85,3.85,0,0,0,1,.16c.23,0,.29,0,.3,0s0-.22,0-.39v-.14c0-.37,0-.89,0-1.38s0-1.09,0-1.42c0-.13,0-.23,0-.29a.93.93,0,0,0,0-.13.77.77,0,0,0-.17-.28l-.43-.51-.23-.25c-.22-.26-.63-.73-.88-1.06a4.64,4.64,0,0,1-.37-.55,2.94,2.94,0,0,0-.27.29,12.63,12.63,0,0,0-.81,1.1c-.22.33-.37.59-.5.83A12.49,12.49,0,0,0,92.71,100.57Z"/><path class="cls-2" d="M95.41,88.79a.42.42,0,0,1-.21-.06c-.17-.12-.17-.35-.17-.68,0-.49,0-1.4,0-2.35v-.36l.08-.07A13.05,13.05,0,0,1,98.72,83l.09,0,.1,0,.87.37c.27.13.93.44,1.27.66a.69.69,0,0,1,.35.42.43.43,0,0,1-.1.33,2.06,2.06,0,0,1-.21.21,2.65,2.65,0,0,0-.25.24,7.87,7.87,0,0,0-.61.8,7.34,7.34,0,0,0-.56.91,3.21,3.21,0,0,0-.16.38,1.31,1.31,0,0,1-.07.19.67.67,0,0,1-.32.36,1.25,1.25,0,0,1-.42.11l-.13,0c-.22,0-.89.17-1.5.34-.41.11-.81.25-1.1.35l-.3.1A1.09,1.09,0,0,1,95.41,88.79Zm.12-3.22v.13c0,1,0,1.86,0,2.34v.22l.28-.1c.3-.1.7-.24,1.12-.35.64-.18,1.32-.31,1.55-.35l.13,0a1.16,1.16,0,0,0,.27-.06.2.2,0,0,0,.1-.12l.06-.15a3.16,3.16,0,0,1,.18-.44,7.69,7.69,0,0,1,.6-1,9.28,9.28,0,0,1,.65-.86,3.33,3.33,0,0,1,.29-.27l.11-.1-.1-.07a10.91,10.91,0,0,0-1.2-.62c-.33-.16-.55-.25-.75-.33A12.59,12.59,0,0,0,95.53,85.57Z"/><path class="cls-2" d="M104.24,99.23a1,1,0,0,1-.51-.17,10.76,10.76,0,0,1-1.29-.91l-1-.82-.54-.45-.41-.32a4,4,0,0,1-.33-.27,1,1,0,0,1-.33-.75,3.46,3.46,0,0,1,.38-1.07l.09-.2c.2-.42.44-.93.62-1.35a8.92,8.92,0,0,0,.39-1.1,3,3,0,0,0,.07-.42c0-.08,0-.14,0-.19.08-.31.3-.31.75-.31l2,0,.75,0c.66,0,1.07,0,1.32,0h.24c.28,0,.44.14.6.48a12.47,12.47,0,0,1,.51,1.44c.07.26.15.52.22.76s.14.48.2.68a5.92,5.92,0,0,0,.28.77l.07.18a1.83,1.83,0,0,1,.1.25c.08.25-.07.41-.32.66s-.87.84-1.39,1.28c-.35.3-.69.57-1,.78l-.36.29c-.15.12-.25.22-.33.29l-.23.19a1.34,1.34,0,0,1-.47.22Zm-2.34-7.82s0,0,0,.07a4.51,4.51,0,0,1-.09.46,8.45,8.45,0,0,1-.41,1.18c-.18.42-.42.94-.62,1.36l-.09.2a2.94,2.94,0,0,0-.34.89.49.49,0,0,0,.17.36l.3.24.42.33.54.45,1,.81a10.71,10.71,0,0,0,1.23.86c.22.13.26.11.31.1a.7.7,0,0,0,.29-.13,1.24,1.24,0,0,0,.19-.16l.36-.31.36-.29c.27-.21.6-.47,1-.77.5-.43,1-1,1.35-1.25l.19-.2-.07-.16-.07-.18a7.92,7.92,0,0,1-.3-.82c-.06-.2-.13-.44-.2-.7s-.14-.49-.22-.75c-.2-.63-.37-1.12-.48-1.37s-.12-.18-.12-.18a2.08,2.08,0,0,0-.25,0c-.25,0-.68,0-1.36,0l-.74,0-2,0Z"/><path class="cls-2" d="M112.87,89.29a.77.77,0,0,1-.39-.16l-.15-.1-.48-.3c-.3-.18-.65-.37-1-.52a8.59,8.59,0,0,0-1-.37l-.51-.14-.18,0a.63.63,0,0,1-.4-.24.58.58,0,0,1-.08-.14l-.12-.21c-.11-.17-.28-.4-.45-.63a8.77,8.77,0,0,0-.58-.71c-.16-.17-.35-.35-.51-.51l-.22-.23c-.16-.15-.29-.28-.25-.49s.23-.32.42-.4a8.2,8.2,0,0,1,1.13-.34c.47-.12,1-.24,1.56-.36l.09,0,.11,0a13.34,13.34,0,0,1,3.27,2.47l.07.07,0,2.5a3,3,0,0,1,0,.53.35.35,0,0,1-.33.31Zm-5.71-4.7,0,.06.23.22.52.52a9.25,9.25,0,0,1,.61.75c.18.24.36.49.47.67a1.31,1.31,0,0,1,.14.24.56.56,0,0,0,0,.08s0,0,.11.05l.17,0,.55.14a9.81,9.81,0,0,1,1,.4c.33.16.71.35,1,.54l.5.32.13.08v-.21l0-2.34a12.62,12.62,0,0,0-3-2.25l-1.48.34a9.58,9.58,0,0,0-1.07.32Z"/><path class="cls-2" d="M112.89,102.09a1,1,0,0,1-.35,0c-.23-.1-.25-.33-.26-.76s0-1.06,0-1.69V98.43c0-.34,0-.62,0-.81a1,1,0,0,1,.19-.73c0-.07.11-.14.18-.24s.3-.36.49-.64.48-.72.68-1l.18-.29c.2-.33.31-.49.5-.53a.73.73,0,0,1,.53.18c.19.13.48.34.65.48a1.54,1.54,0,0,1,.34.35c.12.15.25.32.36.48l.31.45,0,.08v.1a12.85,12.85,0,0,1-2,5.68l-.07.12-1.55,0Zm-.09-.5h.31l1.28,0a12.4,12.4,0,0,0,1.86-5.26c-.09-.13-.17-.25-.27-.38s-.23-.32-.32-.43a1.15,1.15,0,0,0-.28-.3c-.16-.13-.43-.33-.61-.45l-.15-.09s-.1.15-.19.29l-.18.28c-.2.33-.46.74-.69,1.07s-.37.5-.51.67a2.25,2.25,0,0,0-.17.21c-.08.11-.09.12-.09.44s0,.47,0,.81V99.6c0,.63,0,1.29,0,1.68A1.76,1.76,0,0,0,112.8,101.59Z"/><path class="cls-2" d="M103.84,107.88a13.42,13.42,0,0,1-2.2-.18l-.1,0a6,6,0,0,1-.9-.72,3.86,3.86,0,0,1-.59-.83,4.3,4.3,0,0,1-.38-.74.39.39,0,0,1,.21-.55,4.31,4.31,0,0,1,.73-.24l1.66-.44c.52-.13.85-.2,1.09-.24a2.9,2.9,0,0,1,.57,0,5.2,5.2,0,0,1,.77.11l.71.16.64.15.53.1.43.09a3.65,3.65,0,0,1,.73.24c.37.19.24.5.16.69a6.82,6.82,0,0,1-.54,1,2.86,2.86,0,0,1-.68.75c-.23.18-.5.35-.76.52l-.11,0A13,13,0,0,1,103.84,107.88Zm-2.06-.67a13.08,13.08,0,0,0,3.9,0,8.25,8.25,0,0,0,.69-.47,2.28,2.28,0,0,0,.57-.63,6.92,6.92,0,0,0,.5-1l0-.07a3.69,3.69,0,0,0-.57-.17l-.42-.09-.54-.1-.65-.15-.69-.16a4,4,0,0,0-.69-.1,2,2,0,0,0-.48,0,9.74,9.74,0,0,0-1,.23l-1.65.43-.58.18a4.64,4.64,0,0,0,.32.62,3.61,3.61,0,0,0,.52.73A5.77,5.77,0,0,0,101.78,107.21Z"/><path class="cls-2" d="M30.55,63.33a1.63,1.63,0,0,1-.44-.08c-.51-.14-1.48-.49-1.77-.6-.51-.18-.57-.21-.64-.31a.37.37,0,0,1-.07-.23l0-.28c0-.17,0-.4-.06-.71s-.09-1-.08-1.48.08-.66.23-.77.33,0,.52.07l.26.13.81.4.71.35c.42.21.49.27.56.35s.13.21.18.66.1,1,.14,1.49l0,.29c0,.39,0,.42,0,.51A.33.33,0,0,1,30.55,63.33ZM28.13,62l.38.15c.58.21,1.34.47,1.73.58l.17,0v-.16l0-.29c0-.44-.09-1.1-.13-1.48a1.89,1.89,0,0,0-.07-.39,2.49,2.49,0,0,0-.4-.22l-.71-.35-.82-.4L28,59.38a1.65,1.65,0,0,0,0,.27c0,.46.05,1.21.07,1.43s0,.53.07.69Z"/><path class="cls-2" d="M45.44,64.26a6.71,6.71,0,0,1-.82-.05c-1.44-.16-4.28-.68-5.11-.83-1.4-.27-1.54-.31-1.67-.44a.78.78,0,0,1-.17-.41c0-.08,0-.17-.08-.3s-.07-.28-.13-.47c-.12-.44-.29-1.07-.51-1.92s-.68-2.76-.86-4h0c-.19-1.33,0-1.69.16-1.85s.43-.14,1,0l.78.27,2.5.75,2,.61a4.83,4.83,0,0,1,1.56.64c.19.16.3.29.64,1.5.3,1,.77,2.89,1.08,4.11l.21.82c.23.9.24.95.21,1.12S46,64.26,45.44,64.26Zm-8.87-9.9a2.91,2.91,0,0,0,0,1.41h0c.17,1.21.65,3.17.85,3.95s.38,1.47.51,1.91c0,.19.09.35.13.48l.07.3a1.71,1.71,0,0,0,.05.18c.08,0,.77.17,1.4.29,1.71.32,3.94.71,5.08.83.92.1,1.11,0,1.13,0a6.15,6.15,0,0,1-.23-.85l-.21-.82c-.32-1.23-.79-3.08-1.08-4.1s-.4-1.19-.48-1.25-.23-.18-1.39-.55l-2-.61c-.91-.27-1.85-.55-2.5-.76l-.8-.26a2.75,2.75,0,0,0-.51-.16Z"/><path class="cls-2" d="M51.56,49.85a1.31,1.31,0,0,1-.67-.36c-.52-.41-1.5-1.3-1.79-1.56-.5-.46-.56-.52-.58-.64a.45.45,0,0,1,0-.28l.11-.35c.06-.2.14-.48.26-.86s.4-1.25.63-1.77.4-.71.61-.76.33.09.51.3a3.57,3.57,0,0,0,.24.29c.2.24.49.57.78.89l.65.74a2.11,2.11,0,0,1,.47.66c.06.16,0,.29-.1.83l-.56,1.81L52,49.2c-.14.44-.15.46-.22.54A.3.3,0,0,1,51.56,49.85ZM49,47.17c.1.1.31.3.42.39h0c.58.54,1.35,1.22,1.76,1.54l.26.19a2.18,2.18,0,0,0,.08-.24l.13-.41c.17-.55.42-1.35.55-1.8a1.54,1.54,0,0,0,.12-.52s0-.1-.38-.51l-.64-.72-.8-.9-.24-.3-.06-.07a4.4,4.4,0,0,0-.21.41c-.22.5-.5,1.37-.61,1.72s-.2.65-.26.85l-.12.37Z"/><path class="cls-2" d="M64.77,59.6c-.27,0-.64-.24-1.26-.79-1.08-1-3.08-3-3.67-3.65-1-1-1.08-1.14-1.11-1.33a.81.81,0,0,1,.1-.44l.28-.73c.15-.43.38-1,.7-1.86s1-2.65,1.62-3.76,1-1.38,1.21-1.41.43.13.78.62l.48.67c.4.53,1,1.3,1.58,2s1,1.25,1.32,1.71a4.42,4.42,0,0,1,.9,1.42c.06.24.08.41-.35,1.6-.35,1-1,2.78-1.5,4l-.3.76c-.35.9-.37,1-.49,1.07A.4.4,0,0,1,64.77,59.6ZM62.68,46.11a3.16,3.16,0,0,0-.8,1.16c-.57,1.09-1.31,3-1.61,3.71h0c-.31.82-.54,1.42-.69,1.85l-.28.75a.74.74,0,0,0-.07.18c0,.08.52.59,1,1.05,1.21,1.26,2.8,2.87,3.65,3.63.69.62.89.66.92.66a5.91,5.91,0,0,1,.31-.87l.3-.76c.46-1.18,1.15-2.95,1.5-3.95s.36-1.2.34-1.29-.08-.29-.82-1.26l-1.32-1.71c-.58-.74-1.18-1.5-1.58-2-.21-.29-.36-.51-.49-.68A3.76,3.76,0,0,0,62.68,46.11Z"/><path class="cls-2" d="M71.68,44.9c-.21,0-.42-.23-.64-.51-.41-.52-1.16-1.62-1.38-1.94-.38-.57-.41-.63-.41-.76a.51.51,0,0,1,.09-.26l.19-.32c.11-.18.25-.44.45-.77s.69-1.12,1-1.58.55-.6.77-.6.3.17.42.42c0,.09.09.19.17.34s.34.66.55,1l.46.87a2.07,2.07,0,0,1,.31.76c0,.16,0,.28-.3.77s-.68,1.17-1,1.67l-.2.33c-.24.4-.25.42-.34.48A.33.33,0,0,1,71.68,44.9Zm-1.91-3.2c.06.11.23.35.31.47.44.66,1,1.5,1.35,1.91a2,2,0,0,0,.22.24l.13-.21.2-.34c.3-.49.74-1.23,1-1.65a2.07,2.07,0,0,0,.23-.47s0-.12-.25-.59l-.46-.87c-.21-.38-.42-.77-.56-1l-.17-.34,0-.08a3.58,3.58,0,0,0-.3.34c-.33.44-.81,1.22-1,1.54s-.34.58-.44.76l-.2.33Z"/><path class="cls-2" d="M84.28,54.63c-.28,0-.61-.29-1.18-1-.93-1.18-2.66-3.72-3-4.22-.8-1.18-.86-1.31-.86-1.49a.72.72,0,0,1,.17-.42l.15-.26c.07-.11.16-.26.26-.44.22-.39.54-.95,1-1.69s1.48-2.44,2.24-3.43,1.2-1.19,1.43-1.19.4.2.66.75l.36.74c.31.6.77,1.45,1.22,2.28s.75,1.4,1,1.9a4.44,4.44,0,0,1,.64,1.56c0,.24,0,.42-.61,1.52-.52.92-1.5,2.54-2.15,3.62l-.45.75c-.48.8-.51.85-.64.94A.38.38,0,0,1,84.28,54.63ZM84.44,41s-.28.06-1,1-1.79,2.68-2.21,3.37-.76,1.3-1,1.69L80,47.5l-.16.26a1.56,1.56,0,0,0-.09.17c0,.08.41.66.78,1.2s2,3,3,4.19c.58.73.76.8.79.81a6.26,6.26,0,0,1,.44-.78l.46-.75c.64-1.07,1.61-2.69,2.13-3.61s.56-1.12.55-1.22,0-.29-.59-1.38l-1-1.89c-.45-.83-.91-1.69-1.22-2.3-.16-.31-.28-.56-.37-.75A3.18,3.18,0,0,0,84.44,41Z"/><path class="cls-2" d="M95.71,59c-.22,0-.42-.24-.64-.51-.44-.55-1.23-1.71-1.38-1.94-.39-.57-.42-.63-.42-.76a.44.44,0,0,1,.1-.26l.18-.32c.11-.18.25-.44.46-.77h0a18.71,18.71,0,0,1,1-1.57c.32-.42.54-.6.76-.6s.3.16.43.42l.16.33c.14.28.35.67.55,1.05s.35.64.46.87a2.07,2.07,0,0,1,.31.76c0,.16,0,.28-.29.77s-.67,1.14-1,1.63l-.24.4c-.21.36-.23.39-.32.45A.32.32,0,0,1,95.71,59Zm-1.92-3.21c.07.12.23.36.31.48s.94,1.38,1.36,1.9a1.64,1.64,0,0,0,.21.25,2,2,0,0,0,.11-.19l.24-.4c.3-.49.73-1.2,1-1.62a2.84,2.84,0,0,0,.24-.47,2.67,2.67,0,0,0-.26-.58l-.46-.87c-.2-.38-.42-.77-.56-1l-.16-.34,0-.08a2,2,0,0,0-.3.34c-.34.44-.81,1.22-1,1.53h0l-.44.77-.2.33Z"/><path class="cls-2" d="M98.74,44.33V40.17L98.9,40c.29-.25.48-.35.66-.31s.24.21.29.4l.06.24c0,.19.14.48.22.75s.14.47.18.64a1.37,1.37,0,0,1,.1.58c0,.13-.06.22-.32.51l-.85.94Zm.51-3.93v2.65l.48-.53c.16-.19.2-.24.2-.26a3.65,3.65,0,0,0-.09-.37c0-.16-.11-.39-.18-.62s-.17-.57-.23-.77l0-.2A.91.91,0,0,0,99.25,40.4Z"/><path class="cls-2" d="M104.68,59.58c-.32,0-.56-.36-.91-1.34-.51-1.43-1.33-4.38-1.49-5-.4-1.43-.4-1.53-.34-1.69s.13-.21.29-.35l.23-.19.38-.33c.34-.3.82-.73,1.49-1.29s2.17-1.82,3.21-2.53,1.53-.74,1.74-.67.32.32.39.92c0,.2.06.47.11.82.09.66.25,1.62.41,2.55s.27,1.56.35,2.12a4.7,4.7,0,0,1,.11,1.69c-.06.23-.13.4-1.07,1.24s-2.27,2-3.24,2.79l-.59.5c-.73.62-.78.66-.94.7A.32.32,0,0,1,104.68,59.58Zm4.41-12.9s-.29,0-1.27.64h0c-1,.69-2.56,2-3.17,2.49s-1.14,1-1.48,1.29l-.38.33-.24.2-.15.13c0,.08.17.71.36,1.38s1,3.52,1.48,4.93a2.87,2.87,0,0,0,.49,1,6.78,6.78,0,0,1,.69-.61l.6-.5c1-.83,2.43-2.07,3.23-2.79s.89-.88.91-1a4,4,0,0,0-.12-1.49c-.08-.56-.21-1.33-.34-2.12s-.32-1.89-.42-2.56c0-.35-.08-.62-.11-.83A4.09,4.09,0,0,0,109.09,46.68Z"/><path class="cls-2" d="M121.58,50.78l.1-.47c.19-1,.38-1.89.55-2.77l0-.14.13,0,.09.23-.07-.24c.24-.1.82-.34,1.2-.46s.58-.12.72,0,.14.28.1.47l0,.25-.11.8c0,.24-.06.47-.09.64a1.38,1.38,0,0,1-.14.56c-.07.12-.16.18-.5.34l-1.15.5Zm1.11-3c-.13.7-.28,1.43-.43,2.18.35-.14.8-.34,1.07-.46l.29-.15s0-.15.07-.38l.08-.62c0-.3.08-.61.12-.82s0-.14,0-.2l-.17,0C123.52,47.43,123.13,47.58,122.69,47.76Z"/><path class="cls-2" d="M123.58,66.42h-.07c-.4,0-.53-.43-.51-1.61,0-1.51.3-4.57.35-5.17.13-1.42.16-1.56.28-1.7a.75.75,0,0,1,.4-.22l.28-.1.47-.18c.43-.16,1-.39,1.85-.68s2.69-.94,3.9-1.23,1.69-.16,1.86,0,.18.42,0,1c-.05.2-.11.46-.19.8-.14.66-.33,1.61-.51,2.54s-.3,1.56-.42,2.11a4.86,4.86,0,0,1-.49,1.61c-.14.21-.26.33-1.44.79-1,.39-2.79,1-4,1.45l-.8.29A4,4,0,0,1,123.58,66.42Zm8.21-10.58a5.41,5.41,0,0,0-1.15.18c-1.18.28-3.08.94-3.85,1.21s-1.4.52-1.83.68l-.48.18-.29.11a.72.72,0,0,0-.18.07,14.12,14.12,0,0,0-.16,1.42c-.06.59-.33,3.63-.35,5.13,0,.93.08,1.1.1,1.13a5.08,5.08,0,0,1,.83-.32l.8-.29c1.19-.42,3-1.06,4-1.45s1.14-.51,1.2-.59a4.43,4.43,0,0,0,.42-1.44c.12-.56.27-1.32.42-2.11s.37-1.88.51-2.54l.19-.82a2.85,2.85,0,0,0,.11-.53A2.35,2.35,0,0,0,131.79,55.84Z"/><path class="cls-2" d="M56.76,110.31a.49.49,0,0,1-.21,0l-.06,0-.09-.08a.39.39,0,0,1-.08-.1l0-.11s0,0-.2-1.28L53.91,94.26c-.15-1-.26-1.73-.33-2.22l0-.29h.29s.76,0,1.17-1.13h0c.1-.25.11-.28,12.29-.11l2.95,0c1.76,0,2.63,0,3.08.57s.36,1.44.14,3c-.51,3.7-1.75,11.22-2,12.69-.55,3.3-.67,3.43-3.15,3.46-2.06,0-5.9,0-8.38,0H56.76Zm-2.65-18.1c.07.47.16,1.11.29,2l2.18,14.45c.11.79.16,1.07.17,1.18h3.18c2.48,0,6.32,0,8.37,0s2.16,0,2.67-3c.24-1.47,1.49-9,2-12.68.2-1.39.29-2.26,0-2.61s-1.14-.39-2.71-.4l-2.94,0c-3.85-.06-10.85-.15-11.87-.08A2,2,0,0,1,54.11,92.21Z"/><path class="cls-2" d="M56.76,110.31a.49.49,0,0,1-.21,0l-.06,0-.09-.08a.39.39,0,0,1-.08-.1l0-.11s0,0-.2-1.28L53.91,94.26c-.15-1-.26-1.73-.33-2.22l0-.27.27,0a1.21,1.21,0,0,0,.34-.06.73.73,0,0,0,.43-.35,5.83,5.83,0,0,0,.4-.68l.07-.13h3.17l.62,7.07-.06.08A4.41,4.41,0,0,0,57.65,101a3.85,3.85,0,0,0,1.7,2.72l.1.07v.12c.07.83.14,1.77.21,2.7.1,1.21.19,2.41.27,3.39l0,.27h-3.2ZM54.11,92.22c.07.47.17,1.1.29,2l2.18,14.45c.11.79.16,1.07.17,1.18h2.67c-.08-.93-.16-2-.25-3.12-.07-.89-.14-1.79-.2-2.59a4.37,4.37,0,0,1-1.82-3,4.9,4.9,0,0,1,1.18-3.66L57.76,91H55.35a6.37,6.37,0,0,1-.35.6,1.36,1.36,0,0,1-.69.54Z"/><path class="cls-2" d="M62.21,110.3l-.12-5.53.28,0a8.2,8.2,0,0,0,2.09-.09l.73-.16.33-.09-.11,2.76c0,1-.09,2-.12,2.84v.24Zm.39-5,.1,4.49h2.1c0-.76.07-1.68.11-2.6L65,105.1l-.45.09A9.08,9.08,0,0,1,62.6,105.31Z"/><path class="cls-2" d="M67.43,110.28l0-.27c.1-1.07.25-2.47.4-3.86.12-1.07.23-2.14.33-3.05V103l.07-.07a4.8,4.8,0,0,0,1.89-4.13,3.79,3.79,0,0,0-1.3-2.4l-.09-.08v-.13c.08-.87.18-1.79.27-2.72s.19-1.83.27-2.7l0-.23h.9c2.14,0,3.22,0,3.38,1.32a10,10,0,0,1-.16,2.26c-.51,3.7-1.75,11.22-2,12.69-.55,3.3-.67,3.43-3.15,3.46Zm1.24-7c-.09.89-.2,1.92-.31,3-.14,1.28-.27,2.55-.38,3.58h.32c2.16,0,2.16,0,2.67-3,.24-1.47,1.49-9,2-12.68a9,9,0,0,0,.16-2.13c-.1-.79-.56-.86-2.89-.88H69.8c-.08.8-.17,1.64-.25,2.48s-.18,1.76-.26,2.59a4.25,4.25,0,0,1,1.36,2.63A5.26,5.26,0,0,1,68.67,103.25Z"/><path class="cls-2" d="M62,95.49v-.42c0-.53,0-1,0-1.24,0-.7-.07-2.82-.11-3l-.07-.3H66v.26c0,.65-.06,1.51-.09,2.38l-.07,1.92-.26,0a7.76,7.76,0,0,0-2.09.08l-.26.05a4.8,4.8,0,0,0-.87.2ZM62.37,91c0,.35.05,1.1.09,2.8,0,.2,0,.57,0,1l.62-.12.26,0a7.65,7.65,0,0,1,2-.11l0-1.39c0-.75.06-1.51.08-2.12Z"/><path class="cls-2" d="M53.73,92.26a1.56,1.56,0,0,1-.48-.08,1.35,1.35,0,0,1-.77-.68,2.58,2.58,0,0,1-.13-.44.8.8,0,0,0,0-.18.61.61,0,0,0-.1-.14,1.48,1.48,0,0,1-.16-.26,1.15,1.15,0,0,1,0-.76,1.33,1.33,0,0,1,.39-.68l.12-.08v-.18c0-.18.06-.45.11-.68a1.15,1.15,0,0,1,.4-.74,1.17,1.17,0,0,1,.82-.11,1.09,1.09,0,0,1,.46.22h0c.07-.1.13-.2.29-.4a4.87,4.87,0,0,1,.6-.66,1.31,1.31,0,0,1-.39-.3.9.9,0,0,1-.15-.77,1.67,1.67,0,0,1,.46-.86,1.87,1.87,0,0,1,.94-.4,3.82,3.82,0,0,1,1-.08.67.67,0,0,1,.63.44,2,2,0,0,1,.07.78c0,.07,0,.15,0,.22v.09l0,0a1.79,1.79,0,0,1,.24-.23,1.34,1.34,0,0,1,.48-.21l.18,0a2.8,2.8,0,0,0,.31-.09.73.73,0,0,0,.25-.17.31.31,0,0,0-.17-.23l-.07,0a.69.69,0,0,1-.23-.18,1,1,0,0,1-.2-.52,1.17,1.17,0,0,1,.16-.62,2.61,2.61,0,0,1,.47-.6,1,1,0,0,1,.58-.27.8.8,0,0,1,.81.56l0,.08a.72.72,0,0,0,0,.14h.09a.24.24,0,0,0,.13,0,.5.5,0,0,0,.19-.14,1.3,1.3,0,0,0,.1-.15l.14-.22a1,1,0,0,1,.48-.3,1.71,1.71,0,0,1,.56-.09,2.44,2.44,0,0,1,.55,0,1.26,1.26,0,0,1,.49.16.4.4,0,0,1,.21.37c0,.07,0,.07,0,.08a.52.52,0,0,0,.3.13.89.89,0,0,0,.34,0l.14,0,.24,0,.37-.08.21-.1.11-.06a1.66,1.66,0,0,1,.49-.14,1.48,1.48,0,0,1,.67,0,1.45,1.45,0,0,1,.61.34.91.91,0,0,1,.18.33l0,.06a.9.9,0,0,0,.14.22.39.39,0,0,0,.17.13,1.48,1.48,0,0,0,.31.15,3.84,3.84,0,0,1,.35.17l.11.07s0,0,0,0a1,1,0,0,1,.17-.1,1.25,1.25,0,0,1,.43-.07h.11a1.43,1.43,0,0,1,.47,0,.48.48,0,0,1,.37.42,1.39,1.39,0,0,1,0,.65s0,.08,0,.12l.12-.17a.69.69,0,0,1,.42-.23,1.54,1.54,0,0,1,.48,0,1.5,1.5,0,0,1,.47.14,1.76,1.76,0,0,1,.3.21c.1.07.1.07.16.07l.14,0a1.46,1.46,0,0,1,.42,0,.8.8,0,0,1,.55.31,1.29,1.29,0,0,1,.22.3l.11.15a.81.81,0,0,1,.19.41.56.56,0,0,1-.19.39l0,.06-.11.13-.07.09.12.05a1.06,1.06,0,0,1,.43.35.77.77,0,0,1,.18.52,1.09,1.09,0,0,1-.2.51.79.79,0,0,1-.38.29l-.15.06h.18a1,1,0,0,1,.55.39,6.18,6.18,0,0,1,.49.67,1.07,1.07,0,0,1,.18.7,2.12,2.12,0,0,1-.12.45,1.42,1.42,0,0,0,0,.16.73.73,0,0,0-.06.38.19.19,0,0,0,0,.08.42.42,0,0,1,0,.37,1,1,0,0,1-.48.36,2.15,2.15,0,0,1-.44.09l-.25,0,0-.25C73,91.05,72,91,71.94,91l-16.5-.14c-.15.27-.3.55-.44.76a1.36,1.36,0,0,1-.69.54A2,2,0,0,1,53.73,92.26Zm-.15-4.54a.42.42,0,0,0-.25.06.78.78,0,0,0-.19.43,5.77,5.77,0,0,0-.1.61v.1a.22.22,0,0,1,.1.25l0,.14-.23.07a.2.2,0,0,0-.14.05.82.82,0,0,0-.23.41.85.85,0,0,0,0,.45.94.94,0,0,0,.1.14,1.05,1.05,0,0,1,.16.26,1.76,1.76,0,0,1,.07.27,1.17,1.17,0,0,0,.09.32.86.86,0,0,0,.48.43,1.24,1.24,0,0,0,.74,0,.73.73,0,0,0,.43-.35,6.44,6.44,0,0,0,.48-.84l.07-.13L72,90.51a1.68,1.68,0,0,1,1.62,1.1l.08,0a1.48,1.48,0,0,0,.18-.09,1.42,1.42,0,0,1,0-.16,1.29,1.29,0,0,1,.08-.61l.06-.18a1.93,1.93,0,0,0,.09-.34.61.61,0,0,0-.11-.4,7.27,7.27,0,0,0-.44-.6c-.14-.15-.2-.2-.26-.22H73a2.62,2.62,0,0,1-.28,0c-.27,0-.47-.23-.45-.45s.29-.38.38-.42L72.9,88l.16-.07a.28.28,0,0,0,.17-.12.6.6,0,0,0,.11-.25.34.34,0,0,0-.08-.2.65.65,0,0,0-.24-.19l-.26-.1L72.57,87,72.45,87l0-.17a.31.31,0,0,1,.15-.27l.06,0,.16-.19.12-.15.06-.07L73,86s-.07,0-.1-.1l-.11-.17a2.15,2.15,0,0,0-.18-.24.32.32,0,0,0-.24-.14.94.94,0,0,0-.28,0l-.19,0a.67.67,0,0,1-.45-.14,2.12,2.12,0,0,0-.28-.2.89.89,0,0,0-.29-.08.86.86,0,0,0-.32,0,.19.19,0,0,0-.15.07,1.53,1.53,0,0,0-.15.23l-.07.13a3.61,3.61,0,0,1-.32.42c-.24.24-.43.21-.54.15a.51.51,0,0,1-.22-.48.93.93,0,0,1,.15-.52.71.71,0,0,1,.1-.14.54.54,0,0,0,.11-.19.83.83,0,0,0,0-.4l0-.09-.3,0h-.06a1,1,0,0,0-.31,0l-.1.06a.66.66,0,0,1-.24.11.57.57,0,0,1-.39-.1,3.53,3.53,0,0,0-.33-.17L67.34,84a.91.91,0,0,1-.3-.25,1.29,1.29,0,0,1-.23-.36l0-.09a.39.39,0,0,0-.06-.13,1,1,0,0,0-.39-.21,1.36,1.36,0,0,0-.46,0,1,1,0,0,0-.34.1l-.08,0a1.06,1.06,0,0,1-.32.15l-.42.09-.23,0-.13,0a1.45,1.45,0,0,1-.51,0,1,1,0,0,1-.59-.27.58.58,0,0,1-.17-.4,1.1,1.1,0,0,0-.28-.08,2.2,2.2,0,0,0-.45,0,1.65,1.65,0,0,0-.43.06.52.52,0,0,0-.24.15.78.78,0,0,0-.1.15,1.64,1.64,0,0,1-.14.22.92.92,0,0,1-.39.28.69.69,0,0,1-.32.06.58.58,0,0,1-.43-.14.77.77,0,0,1-.19-.34l0-.07a.33.33,0,0,0-.11-.17.34.34,0,0,0-.2-.06.45.45,0,0,0-.27.14,1.75,1.75,0,0,0-.37.47.63.63,0,0,0-.1.34.52.52,0,0,0,.09.25l.09.06.11.07a1.11,1.11,0,0,1,.36.4.52.52,0,0,1-.09.55,1.15,1.15,0,0,1-.45.32,2.5,2.5,0,0,1-.39.11l-.16,0a1.24,1.24,0,0,0-.32.13l-.16.16-.06.07a.71.71,0,0,1-.32.21.42.42,0,0,1-.33,0,.36.36,0,0,1-.18-.25,1.34,1.34,0,0,1,0-.45,1.25,1.25,0,0,0,0-.21,1.57,1.57,0,0,0,0-.57s0-.1-.2-.11a3.47,3.47,0,0,0-.84.07,1.38,1.38,0,0,0-.69.28,1.17,1.17,0,0,0-.31.59.39.39,0,0,0,0,.35,1.4,1.4,0,0,0,.33.24c.21.12.5.29.35.54l0,.09-.14,0a.49.49,0,0,0-.18.09,4.14,4.14,0,0,0-.51.58,2.27,2.27,0,0,0-.25.34l0,.06a.59.59,0,0,1-.22.27.35.35,0,0,1-.41-.11.88.88,0,0,0-.34-.19Zm16.25-2.61s0,0,0,0a.86.86,0,0,1-.07.1s0,0,0,.08a1.4,1.4,0,0,0,.12-.18Z"/><path class="cls-2" d="M63,105.32A6.79,6.79,0,0,1,59,104.08a4.31,4.31,0,0,1-1.8-3c-.34-2.9,2.4-5.8,6.12-6.45a7.28,7.28,0,0,1,5.58,1.11,4.31,4.31,0,0,1,1.8,3c.35,2.91-2.4,5.8-6.11,6.45h0A8.72,8.72,0,0,1,63,105.32ZM64.78,95a8.9,8.9,0,0,0-1.43.12c-3.46.61-6,3.26-5.7,5.9a3.83,3.83,0,0,0,1.6,2.65,6.78,6.78,0,0,0,5.21,1c3.45-.61,6-3.25,5.7-5.9a3.88,3.88,0,0,0-1.6-2.65A6.32,6.32,0,0,0,64.78,95Z"/><path d="M60.89,100.23l-.57-2.07.75-.2.31-.07a.58.58,0,0,1,.27,0,.48.48,0,0,1,.22.16.72.72,0,0,1,.14.26.68.68,0,0,1,0,.49.78.78,0,0,1-.54.35l-.51.14.23.84Zm0-1.15.52-.15a.53.53,0,0,0,.34-.2.38.38,0,0,0,0-.3.44.44,0,0,0-.13-.21.36.36,0,0,0-.2-.08l-.25,0-.51.15Z"/><path d="M62.39,98.74a1.21,1.21,0,0,1,0-.89.92.92,0,0,1,.6-.48,1,1,0,0,1,.54,0,.92.92,0,0,1,.44.29,1.16,1.16,0,0,1,.27.53,1.33,1.33,0,0,1,0,.59.93.93,0,0,1-.25.48,1,1,0,0,1-.45.26.9.9,0,0,1-.54,0,.92.92,0,0,1-.44-.29A1.25,1.25,0,0,1,62.39,98.74Zm.28-.08a.85.85,0,0,0,.35.54.69.69,0,0,0,1-.27.94.94,0,0,0,0-.67,1.17,1.17,0,0,0-.2-.42.71.71,0,0,0-.32-.23.65.65,0,0,0-.39,0,.68.68,0,0,0-.43.33A.92.92,0,0,0,62.67,98.66Z"/><path d="M64.92,99.12l-.57-2.07.75-.2a2.05,2.05,0,0,1,.31-.07.59.59,0,0,1,.27,0,.54.54,0,0,1,.22.16.72.72,0,0,1,.14.26.74.74,0,0,1,0,.49.78.78,0,0,1-.54.35l-.51.14.23.84Zm0-1.15.52-.15a.58.58,0,0,0,.34-.19.41.41,0,0,0,0-.31.44.44,0,0,0-.13-.21.29.29,0,0,0-.2-.07.81.81,0,0,0-.25,0l-.51.14Z"/><path d="M61.72,102.33H62a1,1,0,0,1-.16.6.82.82,0,0,1-.48.32,1,1,0,0,1-.56,0,1,1,0,0,1-.42-.31,1.75,1.75,0,0,1-.26-.53,1.33,1.33,0,0,1,0-.59.76.76,0,0,1,.24-.46.93.93,0,0,1,.45-.26.76.76,0,0,1,.54,0,.89.89,0,0,1,.41.36l-.24.14a.66.66,0,0,0-.29-.27.58.58,0,0,0-.37,0,.73.73,0,0,0-.35.22.69.69,0,0,0-.13.37,1.21,1.21,0,0,0,0,.42,1.19,1.19,0,0,0,.2.44.58.58,0,0,0,.31.23.66.66,0,0,0,.37,0,.57.57,0,0,0,.33-.23A.67.67,0,0,0,61.72,102.33Z"/><path d="M62.16,101.91a1.19,1.19,0,0,1,0-.88.94.94,0,0,1,.61-.48,1,1,0,0,1,.53,0,.9.9,0,0,1,.45.29,1.43,1.43,0,0,1,.27.52,1.23,1.23,0,0,1,0,.6,1,1,0,0,1-.24.47,1,1,0,0,1-1,.26.92.92,0,0,1-.44-.29A1.27,1.27,0,0,1,62.16,101.91Zm.27-.07a.9.9,0,0,0,.36.54.68.68,0,0,0,.54.08.66.66,0,0,0,.43-.35.94.94,0,0,0,0-.67,1.18,1.18,0,0,0-.21-.42.71.71,0,0,0-.32-.23.62.62,0,0,0-.38,0,.66.66,0,0,0-.43.33A.91.91,0,0,0,62.43,101.84Z"/><path d="M64.69,102.3l-.57-2.07L65,100a1.23,1.23,0,0,1,.42-.06.44.44,0,0,1,.28.14.62.62,0,0,1,.17.28.52.52,0,0,1,0,.41.69.69,0,0,1-.37.31l.19.06a1.39,1.39,0,0,1,.29.22l.51.47-.34.09-.38-.36-.27-.23a.39.39,0,0,0-.17-.1.35.35,0,0,0-.14,0l-.15,0-.3.09.25.92Zm-.06-1.23.57-.16a.88.88,0,0,0,.27-.11.33.33,0,0,0,.12-.17.34.34,0,0,0,0-.2.29.29,0,0,0-.16-.21.46.46,0,0,0-.35,0l-.64.18Z"/><path d="M66.69,101.75l-.57-2.07.27-.08,1.5,1.34-.45-1.63.26-.07.57,2.07-.28.08-1.49-1.34.45,1.63Z"/><path class="cls-4" d="M72.71,35.94H70.36l-.41,1a1.36,1.36,0,0,0-.16.53.31.31,0,0,0,.14.24,1.08,1.08,0,0,0,.57.14V38H68.58v-.16a1.13,1.13,0,0,0,.5-.18,2.63,2.63,0,0,0,.5-.87l2.14-5h.15L74,36.81a2.24,2.24,0,0,0,.46.79,1,1,0,0,0,.58.21V38h-2.4v-.16a1.12,1.12,0,0,0,.5-.12.33.33,0,0,0,.12-.25,1.86,1.86,0,0,0-.18-.63Zm-.13-.33-1-2.45-1,2.45Z"/><path class="cls-4" d="M50.53,41.62l-1.71.25-.19.74a1.19,1.19,0,0,0-.06.4.25.25,0,0,0,.12.17,1,1,0,0,0,.43,0l0,.12-1.38.2,0-.12a.78.78,0,0,0,.34-.18,2.2,2.2,0,0,0,.27-.69l1-3.88.11,0,2.06,3.47a1.75,1.75,0,0,0,.42.53.63.63,0,0,0,.44.09l0,.12-1.73.25,0-.12a.6.6,0,0,0,.34-.14.21.21,0,0,0,.07-.19,1.51,1.51,0,0,0-.2-.44Zm-.13-.23-1-1.69-.5,1.91Z"/><path class="cls-4" d="M26,58.19l-.94.75.23.62a1,1,0,0,0,.15.32.19.19,0,0,0,.15.08.5.5,0,0,0,.29-.11l.06.09-.76.61-.07-.09a.4.4,0,0,0,.13-.25,1.89,1.89,0,0,0-.16-.6l-1.18-3.24.07,0,2.9,1.91a1.71,1.71,0,0,0,.51.26.45.45,0,0,0,.31-.08l.07.08-1,.76-.07-.08a.43.43,0,0,0,.15-.22.22.22,0,0,0-.05-.17,1.6,1.6,0,0,0-.33-.26Zm-.18-.13-1.42-.92L25,58.73Z"/><path class="cls-5" d="M99,37.08l1.5-2.15.1,0,.7,3.62a1.53,1.53,0,0,0,.19.58.64.64,0,0,0,.36.21l0,.11-1.58-.33,0-.1a.58.58,0,0,0,.34,0,.18.18,0,0,0,.12-.15,1.16,1.16,0,0,0,0-.43l-.12-.62-1.55-.32,0,0v-.47Zm1.53.51-.34-1.76-1,1.47Z"/><path class="cls-4" d="M125.62,46.23l-1-.75-.56.39a1.55,1.55,0,0,0-.28.24.27.27,0,0,0,0,.18.48.48,0,0,0,.2.25l-.07.09L123,46l.06-.09a.56.56,0,0,0,.29.07,2,2,0,0,0,.56-.32l2.91-2,.07,0-1,3.43a1.58,1.58,0,0,0-.11.57.53.53,0,0,0,.18.3l-.07.09-1-.76.06-.09a.43.43,0,0,0,.27.09.25.25,0,0,0,.15-.1,1.45,1.45,0,0,0,.17-.4Zm.07-.22.51-1.66-1.43,1Z"/><path class="cls-2" d="M92.55,25.22l-8.19-6-8.19,6,3.15-9.64L71.1,9.63l10.14,0L84.36,0l3.11,9.65,10.15,0L89.4,15.58ZM72.65,10.13l7.26,5.26L77.12,23.9l7.24-5.28,7.23,5.28-2.78-8.51,7.26-5.26-9,0L84.36,1.63l-2.75,8.52Z"/><path class="cls-2" d="M71.33,203.25a1.23,1.23,0,0,1-.49-.1,1.7,1.7,0,0,1-.86-.94,1.64,1.64,0,0,1,0-1.27,1.11,1.11,0,0,1,1.5-.58,1.74,1.74,0,0,1,.86,2.2,1.17,1.17,0,0,1-.62.62A1,1,0,0,1,71.33,203.25Zm-.34-2.5a.56.56,0,0,0-.21,0,.64.64,0,0,0-.34.35,1.15,1.15,0,0,0,0,.89,1.17,1.17,0,0,0,.59.66.69.69,0,0,0,.5,0h0a.65.65,0,0,0,.34-.36,1.12,1.12,0,0,0,0-.88,1.23,1.23,0,0,0-.59-.67A.83.83,0,0,0,71,200.75Z"/><path class="cls-2" d="M68.51,197.88a1.55,1.55,0,0,1-1.35-1,1.8,1.8,0,0,1-.06-1.12,1.17,1.17,0,0,1,.68-.77,1.13,1.13,0,0,1,1,.11,1.71,1.71,0,0,1,.72.86,1.43,1.43,0,0,1-.62,1.89h0A1.07,1.07,0,0,1,68.51,197.88Zm-.34-2.5a.52.52,0,0,0-.21,0,.67.67,0,0,0-.38.45,1.21,1.21,0,0,0,0,.79.8.8,0,1,0,1.42-.56,1.14,1.14,0,0,0-.5-.61A.72.72,0,0,0,68.17,195.38Z"/><path class="cls-2" d="M72.3,200.24a1.54,1.54,0,0,1-1.35-1,1.8,1.8,0,0,1-.06-1.12,1.17,1.17,0,0,1,.68-.77,1.42,1.42,0,0,1,1.74,1,1.8,1.8,0,0,1,.06,1.12,1.17,1.17,0,0,1-.68.77A1.07,1.07,0,0,1,72.3,200.24Zm-.34-2.5a.52.52,0,0,0-.21,0,.67.67,0,0,0-.38.45,1.21,1.21,0,0,0,0,.79.94.94,0,0,0,1.09.68.67.67,0,0,0,.38-.45,1.21,1.21,0,0,0,0-.79A1,1,0,0,0,72,197.74Z"/><path class="cls-2" d="M73.91,197.29a1.54,1.54,0,0,1-1.35-1h0a1.64,1.64,0,0,1,0-1.27,1.11,1.11,0,0,1,.62-.62,1.41,1.41,0,0,1,1.73,1,1.74,1.74,0,0,1,.07,1.12,1.2,1.2,0,0,1-.68.77A1.07,1.07,0,0,1,73.91,197.29Zm-.34-2.5a.52.52,0,0,0-.21,0,.66.66,0,0,0-.35.35,1.2,1.2,0,0,0,0,.89h0c.21.53.7.84,1.09.69a.72.72,0,0,0,.38-.46,1.27,1.27,0,0,0,0-.79A1,1,0,0,0,73.57,194.79Z"/><path class="cls-2" d="M76.82,203a1.18,1.18,0,0,1-.48-.1,1.66,1.66,0,0,1-.86-.94,1.69,1.69,0,0,1,0-1.27,1.11,1.11,0,0,1,1.5-.58,1.74,1.74,0,0,1,.86,2.2,1.11,1.11,0,0,1-.62.62A1,1,0,0,1,76.82,203Zm-.33-2.5a.52.52,0,0,0-.21,0h0a.63.63,0,0,0-.35.35,1.19,1.19,0,0,0,0,.89,1.16,1.16,0,0,0,.6.66.67.67,0,0,0,.49,0,.71.71,0,0,0,.35-.36,1.17,1.17,0,0,0,0-.88,1.19,1.19,0,0,0-.59-.67A.77.77,0,0,0,76.49,200.46Z"/><path class="cls-2" d="M78.36,195.43c-.65,0-1.15-.83-1.18-2h0c0-1.13.44-2,1.09-2h0c.64,0,1.15.84,1.18,2s-.44,2-1.09,2Zm-.68-2c0,.84.38,1.46.68,1.46h0c.31,0,.63-.65.61-1.5s-.38-1.47-.68-1.47h0c-.3,0-.62.66-.6,1.51Z"/><path class="cls-2" d="M81.28,196.23c-.65,0-1.15-.83-1.18-1.95h0a2.56,2.56,0,0,1,.51-1.74.89.89,0,0,1,.58-.28,1,1,0,0,1,.87.62,2.91,2.91,0,0,1,.33,1.34c0,1.13-.44,2-1.09,2Zm-.07-3.47h0a.42.42,0,0,0-.23.13,2.06,2.06,0,0,0-.37,1.37h0c0,.85.37,1.47.68,1.47h0c.31,0,.63-.65.61-1.5a2.49,2.49,0,0,0-.27-1.11C81.5,192.9,81.34,192.76,81.21,192.76Z"/><path class="cls-2" d="M84.17,197.12c-.64,0-1.15-.83-1.18-2s.44-2,1.09-2a.82.82,0,0,1,.6.25,2.55,2.55,0,0,1,.6,1.7c0,1.14-.44,2-1.09,2Zm-.07-3.47h0c-.31,0-.63.65-.61,1.5s.38,1.47.68,1.47h0c.3,0,.62-.65.6-1.5a2,2,0,0,0-.45-1.36A.35.35,0,0,0,84.1,193.65Z"/><path class="cls-2" d="M72.22,190.31a.84.84,0,0,1-.71-.33c-.33-.46,0-1.24.74-1.77a2.46,2.46,0,0,1,1-.42.9.9,0,0,1,.88.31c.33.46,0,1.24-.74,1.77a2.35,2.35,0,0,1-1.05.43Zm1.23-2h-.1a1.79,1.79,0,0,0-.81.33c-.52.38-.76.88-.62,1.07s.21.13.41.11a1.86,1.86,0,0,0,.81-.34c.52-.37.76-.87.62-1.07A.37.37,0,0,0,73.45,188.28Z"/><path class="cls-2" d="M84.36,190.43h-.11l-.14,0-.06-.13-.68-1.49-.05-.1,0-.1a2.32,2.32,0,0,1,.22-.41h0a1.85,1.85,0,0,1,.93-.72,1.16,1.16,0,0,1,1,.12,1.47,1.47,0,0,1,.15,2.06A1.71,1.71,0,0,1,84.36,190.43Zm-.49-1.75.57,1.25a1.27,1.27,0,0,0,.86-.57,1,1,0,0,0,0-1.37.73.73,0,0,0-.62-.06,1.41,1.41,0,0,0-.67.53A.94.94,0,0,0,83.87,188.68Z"/><path class="cls-2" d="M87.16,191.59a1.07,1.07,0,0,1-.63-.19,1.15,1.15,0,0,1-.49-.94,1.84,1.84,0,0,1,.34-1.12,1.49,1.49,0,0,1,2-.6,1.17,1.17,0,0,1,.48.94,1.91,1.91,0,0,1-.33,1.13,1.81,1.81,0,0,1-1.12.76A.93.93,0,0,1,87.16,191.59Zm.56-2.54a1.21,1.21,0,0,0-.93.57h0a1.3,1.3,0,0,0-.25.82.69.69,0,0,0,.27.55.65.65,0,0,0,.49.09,1.27,1.27,0,0,0,.79-.56,1.32,1.32,0,0,0,.26-.81.71.71,0,0,0-.28-.56A.6.6,0,0,0,87.72,189.05Z"/><path class="cls-2" d="M89.69,193.49a1.06,1.06,0,0,1-.62-.19,1.16,1.16,0,0,1-.49-.94,1.85,1.85,0,0,1,.34-1.13,1.77,1.77,0,0,1,.92-.71,1.16,1.16,0,0,1,1.06.12,1.49,1.49,0,0,1,.15,2.06A1.74,1.74,0,0,1,89.69,193.49Zm.58-2.54a.84.84,0,0,0-.27,0,1.32,1.32,0,0,0-.67.53h0a1.25,1.25,0,0,0-.25.81.68.68,0,0,0,.27.56,1.18,1.18,0,0,0,1.26-1.84A.57.57,0,0,0,90.27,191Z"/><path class="cls-2" d="M90,188.4a1,1,0,0,1-.62-.18h0a1.18,1.18,0,0,1-.49-.94,1.85,1.85,0,0,1,.34-1.13,1.33,1.33,0,1,1,2.13,1.47A1.72,1.72,0,0,1,90,188.4Zm.58-2.54a1.21,1.21,0,0,0-.94.58,1.25,1.25,0,0,0-.25.81.71.71,0,0,0,.27.56h0c.36.24.94,0,1.29-.47a1,1,0,0,0,0-1.37A.66.66,0,0,0,90.54,185.86Z"/><path class="cls-2" d="M91.88,197.48h-.13a2.46,2.46,0,0,1-1.22-.35,1,1,0,0,1-.55-.87.86.86,0,0,1,.31-.6,2.16,2.16,0,0,1,1.56-.46c1,0,1.8.58,1.77,1.22S92.84,197.48,91.88,197.48Zm-.16-1.79a1.76,1.76,0,0,0-1.1.32.38.38,0,0,0-.14.26c0,.14.11.3.31.43a2,2,0,0,0,1,.27c.75.05,1.34-.28,1.35-.58s-.54-.67-1.29-.7Z"/><path class="cls-2" d="M90.49,200.23h-.13a2.65,2.65,0,0,1-1.22-.35,1,1,0,0,1-.55-.88c0-.64.86-1.11,1.87-1.06s1.79.58,1.77,1.22h0C92.2,199.78,91.45,200.23,90.49,200.23Zm-.17-1.79c-.72,0-1.22.29-1.23.58s.11.3.31.43a2.09,2.09,0,0,0,1,.28c.74,0,1.33-.28,1.35-.59s-.54-.67-1.29-.7Z"/><path class="cls-2" d="M89.37,202.88h-.14a2.18,2.18,0,0,1-1.52-.59.89.89,0,0,1-.25-.63.85.85,0,0,1,.3-.6,2.19,2.19,0,0,1,1.57-.46c1,0,1.8.58,1.77,1.22h0C91.07,202.42,90.32,202.88,89.37,202.88Zm-.17-1.79a1.74,1.74,0,0,0-1.1.32.38.38,0,0,0-.14.26.41.41,0,0,0,.12.27,1.77,1.77,0,0,0,1.17.43c.75,0,1.34-.28,1.35-.58s-.52-.67-1.29-.7Z"/><path class="cls-2" d="M96.61,193.48c-.47,0-.94-.54-1.15-1.32h0a2,2,0,0,1,.1-1.43.73.73,0,0,1,.42-.34.83.83,0,0,1,.81.34,2.3,2.3,0,0,1,.49,1c.22.88,0,1.63-.52,1.77ZM96,192c.16.63.52,1,.69.94s.31-.52.15-1.15a1.93,1.93,0,0,0-.37-.76c-.12-.13-.23-.2-.32-.18a.18.18,0,0,0-.11.1A1.52,1.52,0,0,0,96,192Z"/><path class="cls-2" d="M64.36,193.7l0-.5c3.29-.35,7-.75,8.92-1s1.94-.29,3-1.5,3.25-3.78,5.3-6.2l.38.32c-2,2.43-4.17,4.94-5.31,6.21s-1.41,1.42-3.34,1.66S67.65,193.35,64.36,193.7Z"/><rect class="cls-2" x="77.79" y="191.39" width="0.5" height="13.25" transform="translate(-80.63 56.16) rotate(-26.69)"/><path class="cls-2" d="M86.79,195.56l-.15-.47,4.88-1.51,1.1-.35a17.39,17.39,0,0,0,.17-2.06c.11-1.84.27-5.23.39-8l.5,0c-.12,2.75-.28,6.14-.39,8-.13,2.29-.19,2.33-.38,2.45a8.12,8.12,0,0,1-1.24.41Z"/><rect class="cls-2" x="95.92" y="191.87" width="0.5" height="9.9" transform="translate(-106.34 113.29) rotate(-41.54)"/><rect class="cls-2" x="39.57" y="115.13" width="43.54" height="0.5"/></g></g></g></svg>